<svg width="17" height="18" viewBox="0 0 17 18" fill="none" xmlns="http://www.w3.org/2000/svg">
<path d="M13.5536 17.279C12.5736 18.229 11.5036 18.079 10.4736 17.629C9.38358 17.169 8.38358 17.149 7.23358 17.629C5.79358 18.249 5.03358 18.069 4.17358 17.279C-0.706418 12.249 0.0135822 4.58902 5.55358 4.30902C6.90358 4.37902 7.84358 5.04902 8.63358 5.10902C9.81358 4.86902 10.9436 4.17902 12.2036 4.26902C13.7136 4.38902 14.8536 4.98902 15.6036 6.06902C12.4836 7.93902 13.2236 12.049 16.0836 13.199C15.5136 14.699 14.7736 16.189 13.5436 17.289L13.5536 17.279ZM8.53358 4.24902C8.38358 2.01902 10.1936 0.179023 12.2736 -0.000976562C12.5636 2.57902 9.93358 4.49902 8.53358 4.24902Z" fill="black"/>
</svg>
