<svg width="16" height="16" viewBox="0 0 16 16" fill="none" xmlns="http://www.w3.org/2000/svg">
<path d="M5.57289 0.526614C3.97424 1.0812 2.59557 2.13382 1.63938 3.52987C0.683187 4.92591 0.199878 6.59179 0.260442 8.28282C0.321005 9.97385 0.922249 11.6009 1.97586 12.925C3.02947 14.249 4.47991 15.2003 6.11414 15.6391C7.43904 15.981 8.82715 15.996 10.1591 15.6829C11.3658 15.4118 12.4814 14.8321 13.3966 14.0004C14.3492 13.1083 15.0407 11.9735 15.3966 10.7179C15.7835 9.35245 15.8524 7.91653 15.5979 6.52036H8.15789V9.60661H12.4666C12.3805 10.0988 12.196 10.5687 11.9241 10.9879C11.6522 11.4072 11.2985 11.7672 10.8841 12.0466C10.358 12.3947 9.76488 12.6288 9.14289 12.7341C8.51907 12.8501 7.87921 12.8501 7.25539 12.7341C6.62312 12.6034 6.02501 12.3424 5.49914 11.9679C4.65432 11.3698 4.01998 10.5203 3.68664 9.54036C3.34766 8.54211 3.34766 7.45987 3.68664 6.46161C3.92392 5.76188 4.31618 5.12478 4.83414 4.59786C5.42688 3.9838 6.1773 3.54486 7.00308 3.32921C7.82886 3.11356 8.69809 3.12953 9.51539 3.37536C10.1538 3.57135 10.7377 3.91379 11.2204 4.37536C11.7062 3.89203 12.1912 3.40745 12.6754 2.92161C12.9254 2.66036 13.1979 2.41161 13.4441 2.14411C12.7073 1.45846 11.8425 0.924935 10.8991 0.574114C9.18127 -0.0496489 7.30161 -0.0664119 5.57289 0.526614Z" fill="white"/>
<path d="M5.5725 0.526245C7.30108 -0.067184 9.18074 -0.0508623 10.8987 0.572495C11.8423 0.925699 12.7067 1.46179 13.4425 2.14999C13.1925 2.41749 12.9288 2.66749 12.6737 2.92749C12.1888 3.41166 11.7042 3.89416 11.22 4.37499C10.7373 3.91342 10.1535 3.57098 9.515 3.37499C8.69797 3.1283 7.82877 3.1114 7.00277 3.32617C6.17678 3.54094 5.42589 3.97907 4.8325 4.59249C4.31454 5.11941 3.92228 5.75652 3.685 6.45624L1.09375 4.44999C2.02126 2.6107 3.62719 1.20377 5.5725 0.526245Z" fill="#E33629"/>
<path d="M0.406461 6.4377C0.545738 5.74744 0.776966 5.07898 1.09396 4.4502L3.68521 6.46145C3.34623 7.4597 3.34623 8.54194 3.68521 9.5402C2.82188 10.2069 1.95813 10.8769 1.09396 11.5502C0.3004 9.97059 0.0583771 8.17082 0.406461 6.4377Z" fill="#F8BD00"/>
<path d="M8.15778 6.51855H15.5978C15.8523 7.91472 15.7834 9.35064 15.3965 10.7161C15.0406 11.9717 14.3491 13.1065 13.3965 13.9986C12.5603 13.3461 11.7203 12.6986 10.884 12.0461C11.2986 11.7664 11.6525 11.4059 11.9244 10.9862C12.1963 10.5665 12.3807 10.0962 12.4665 9.60355H8.15778C8.15653 8.57605 8.15778 7.5473 8.15778 6.51855Z" fill="#587DBD"/>
<path d="M1.09277 11.55C1.95694 10.8834 2.82069 10.2134 3.68402 9.54004C4.01803 10.5203 4.65328 11.3699 5.49902 11.9675C6.02653 12.3404 6.62594 12.5992 7.25902 12.7275C7.88284 12.8435 8.5227 12.8435 9.14652 12.7275C9.76852 12.6223 10.3616 12.3881 10.8878 12.04C11.724 12.6925 12.564 13.34 13.4003 13.9925C12.4851 14.8247 11.3695 15.4049 10.1628 15.6763C8.83078 15.9894 7.44268 15.9744 6.11777 15.6325C5.0699 15.3528 4.09112 14.8595 3.24277 14.1838C2.34485 13.4709 1.61147 12.5725 1.09277 11.55Z" fill="#319F43"/>
</svg>
