<svg width="756" height="729" viewBox="0 0 756 729" fill="none" xmlns="http://www.w3.org/2000/svg">
<path d="M432.052 334.374L753.094 334.374V38.3951L432.052 38.3951L432.052 334.374Z" fill="#E6E6E6"/>
<path d="M418.515 334.374L746.764 334.374V38.3951L418.515 38.3951L418.515 334.374Z" fill="#F0F0F0"/>
<path d="M432.052 344.38L753.094 344.38V334.354L432.052 334.354V344.38Z" fill="#E6E6E6"/>
<path d="M395.997 344.38L724.246 344.38V334.354L395.997 334.354V344.38Z" fill="#F0F0F0"/>
<path d="M727.83 314.862V57.8657L437.428 57.8657V314.862H727.83Z" fill="#FAFAFA"/>
<path d="M669.491 314.862L558.406 57.8657H444.73L555.815 314.862H669.491Z" fill="white"/>
<path d="M719.084 271.929C719.824 271.929 720.428 271.307 720.428 270.545V70.5392C720.428 69.7772 719.824 69.1555 719.084 69.1555C718.344 69.1555 717.74 69.7772 717.74 70.5392V270.525C717.74 271.287 718.344 271.909 719.084 271.909V271.929Z" fill="#F0F0F0"/>
<path d="M513.082 314.862L401.997 57.8657H362.67L473.755 314.862H513.082Z" fill="white"/>
<path d="M439.844 314.862V57.8657H437.448V314.862H439.844Z" fill="#E6E6E6"/>
<g opacity="0.5">
<path d="M414.033 84.636H735.095L736.828 65.4456H415.786L414.033 84.636Z" fill="#E6E6E6"/>
<path d="M414.033 116.319H735.095L736.828 97.1289H415.786L414.033 116.319Z" fill="#E6E6E6"/>
<path d="M414.033 148.003H735.095L736.828 128.812H415.786L414.033 148.003Z" fill="#E6E6E6"/>
<path d="M414.033 179.686H735.095L736.828 160.496H415.786L414.033 179.686Z" fill="#E6E6E6"/>
<path d="M414.033 211.369H735.095L736.828 192.179H415.786L414.033 211.369Z" fill="#E6E6E6"/>
<path d="M414.033 243.053H735.095L736.828 223.862H415.786L414.033 243.053Z" fill="#E6E6E6"/>
</g>
<path d="M42.3669 637.812H298.195L298.195 38.3945H42.3669L42.3669 637.812Z" fill="#F0F0F0"/>
<path d="M42.3688 637.812H293.152L293.152 38.3945H42.3688L42.3688 637.812Z" fill="#F5F5F5"/>
<path d="M279.965 637.812L279.965 51.9905L55.5939 51.9905L55.5939 637.812H279.965Z" fill="#EBEBEB"/>
<path d="M116.483 320.216C103.763 316.606 91.044 328.237 78.3246 324.627C75.6366 323.886 73.4355 320.156 73.4355 317.368C73.4355 314.601 75.6366 313.799 78.3246 314.541C91.044 318.15 103.763 306.52 116.483 310.129C119.171 310.871 121.372 314.621 121.372 317.388C121.372 320.156 119.171 320.958 116.483 320.216Z" fill="white"/>
<path d="M59.002 637.812L59.002 51.9905H55.5738L55.5738 637.812H59.002Z" fill="#E0E0E0"/>
<path d="M700.017 624.577H745.908V419.718H700.017V624.577Z" fill="#F0F0F0"/>
<path d="M510.826 637.551H737.105V624.577H510.826V637.551Z" fill="#F0F0F0"/>
<path d="M700.036 419.718H502.02V624.577H700.036V419.718Z" fill="#F5F5F5"/>
<path d="M681.978 444.944H520.055V512.121H681.978V444.944Z" fill="#F0F0F0"/>
<path d="M681.978 532.174H520.055V599.35H681.978V532.174Z" fill="#F0F0F0"/>
<path d="M582.855 450.599H619.202C621.676 450.599 623.682 448.538 623.682 445.997C623.682 443.455 621.676 441.395 619.202 441.395H582.855C580.381 441.395 578.375 443.455 578.375 445.997C578.375 448.538 580.381 450.599 582.855 450.599Z" fill="#F5F5F5"/>
<path d="M582.835 537.849H619.202C621.656 537.849 623.682 535.783 623.682 533.236C623.682 530.71 621.675 528.624 619.202 528.624H582.835C580.381 528.624 578.355 530.69 578.355 533.236C578.355 535.763 580.362 537.849 582.835 537.849Z" fill="#F5F5F5"/>
<path d="M657.358 415.687C655.488 415.687 653.969 414.123 653.969 412.198V305.758C653.969 303.833 655.488 302.269 657.358 302.269C659.228 302.269 660.747 303.833 660.747 305.758V412.198C660.747 414.123 659.228 415.687 657.358 415.687Z" fill="#EBEBEB"/>
<path d="M689.188 411.556H625.514V419.818H689.188V411.556Z" fill="#F0F0F0"/>
<path d="M674.988 365.996C674.053 365.996 673.293 365.214 673.293 364.252V311.032C673.293 310.069 674.053 309.287 674.988 309.287C675.923 309.287 676.682 310.069 676.682 311.032V364.252C676.682 365.214 675.923 365.996 674.988 365.996Z" fill="#E0E0E0"/>
<path d="M607.846 329.42C607.846 329.42 609.112 290.297 657.34 290.297C705.568 290.297 706.835 329.42 706.835 329.42H607.826H607.846Z" fill="#E6E6E6"/>
<path d="M377.665 728.371C586.244 728.371 755.331 718.208 755.331 705.671C755.331 693.134 586.244 682.971 377.665 682.971C169.087 682.971 0 693.134 0 705.671C0 718.208 169.087 728.371 377.665 728.371Z" fill="#F5F5F5"/>
<path d="M345.839 159.854C345.936 155.623 349.754 150.048 365.044 149.046C380.354 148.043 386.042 148.765 392.353 161.077C399.17 174.332 406.961 189.151 401.878 202.747C396.794 216.343 380.783 224.304 369.31 231.483C357.837 238.662 340.735 262.785 340.735 262.785C340.735 262.785 308.83 171.766 345.819 159.854H345.839Z" fill="#263238"/>
<path d="M352.832 341.472C352.832 341.472 376.031 464.095 384.27 513.926C392.821 565.762 400.047 677.296 400.047 677.296H412.942C412.942 677.296 429.362 581.163 412.923 509.554C414.033 452.484 403.261 333.792 403.261 333.792L352.871 341.472H352.832Z" fill="#FF8B7B"/>
<path d="M369.738 338.905C369.738 338.905 420.635 467.122 438.341 514.267C463.176 548.557 525.662 621.288 529.09 622.752L533.609 612.264C533.609 612.264 495.432 535.402 464.656 497.422C456.475 440.974 417.519 331.626 417.519 331.626L369.738 338.905Z" fill="#FF8B7B"/>
<path d="M345.782 261.723C342.12 266.134 338.361 270.365 334.601 274.636C330.822 278.888 326.966 283.059 323.09 287.23C319.233 291.421 315.298 295.531 311.247 299.582C307.215 303.633 303.124 307.663 298.858 311.594L299.501 310.892C298.508 312.075 297.417 312.977 296.346 313.679C295.313 314.321 294.262 314.842 293.307 315.183C291.379 315.905 289.665 316.226 288.048 316.426C284.815 316.787 281.951 316.687 279.166 316.467C273.615 316.005 268.433 314.902 263.349 313.679C258.285 312.376 253.318 310.872 248.429 309.268C243.54 307.563 238.748 305.819 233.957 303.753C231.873 302.851 230.899 300.384 231.775 298.239C232.554 296.354 234.502 295.331 236.391 295.752H236.469C241.281 296.815 246.209 297.878 251.078 298.76C255.948 299.722 260.817 300.545 265.667 301.166C270.479 301.828 275.309 302.289 279.828 302.309C282.068 302.309 284.269 302.189 286.022 301.808C286.899 301.628 287.658 301.387 288.087 301.186C288.34 301.086 288.399 300.986 288.438 300.966C288.438 300.946 288.301 301.006 288.126 301.206L288.769 300.505C292.586 296.594 296.365 292.504 300.105 288.373L311.286 275.84L333.51 250.533C336.569 247.064 341.769 246.783 345.139 249.932C348.45 253.02 348.762 258.233 345.879 261.723H345.86H345.782Z" fill="#FF8B7B"/>
<path d="M239.625 296.835L231.483 282.337L225.932 298.198C225.932 298.198 232.749 306.199 239.274 304.615L239.625 296.835Z" fill="#FF8B7B"/>
<path d="M221.373 282.778L219.406 289.536C218.958 291.08 219.445 292.744 220.672 293.767L225.951 298.198L231.502 282.337L226.574 280.231C224.451 279.329 222.055 280.512 221.393 282.758L221.373 282.778Z" fill="#FF8B7B"/>
<path d="M345.936 241.489C334.483 239.564 329.399 247.706 323.945 253.902C325.25 264.851 344.008 287.31 344.008 287.31C344.008 287.31 366.759 244.978 345.936 241.469V241.489Z" fill="#FF438B"/>
<path d="M330.705 254.944C332.166 266.876 337.698 300.344 353.183 350.476L420.792 340.169C416.118 314.922 409.67 291.099 412.65 240.867C413.001 235.012 408.463 230.079 402.775 230.099C398.198 230.099 392.549 230.299 386.666 230.901C375.7 232.024 366.74 233.027 357.293 235.373C351.06 236.937 344.457 239.022 339.431 240.707C333.568 242.672 329.926 248.648 330.686 254.924L330.705 254.944Z" fill="#FF438B"/>
<path d="M357.312 235.393L386.685 230.921C386.685 230.921 385.341 242.532 366.836 257.792C352.773 244.356 357.312 235.393 357.312 235.393Z" fill="white"/>
<path d="M378.875 197.312C378.427 207.319 379.128 225.426 386.686 230.921C386.686 230.921 380.803 241.99 367.733 250.312C357.468 245.7 357.312 235.393 357.312 235.393C367.48 231.202 366.058 223.181 363.137 215.901L378.894 197.312H378.875Z" fill="#FF8B7B"/>
<path opacity="0.2" d="M372.467 204.913L363.137 215.902C363.838 217.626 364.442 219.391 364.812 221.136C368.746 219.932 373.636 214.538 373.441 210.127C373.343 207.921 372.954 205.855 372.467 204.913Z" fill="black"/>
<path d="M386.296 177.962C384.855 194.345 384.601 201.303 376.323 209.504C363.857 221.817 344.632 216.423 341.282 199.939C338.262 185.1 341.106 160.796 356.903 154.72C372.447 148.745 387.737 161.598 386.316 177.962H386.296Z" fill="#FF8B7B"/>
<path d="M374.083 165.208C372.681 175.014 378.31 187.005 383.18 187.146C388.049 187.266 391.731 168.336 391.731 168.336L374.083 165.208Z" fill="#263238"/>
<path d="M347.029 160.195C357.411 167.775 388.265 179.125 388.908 169.339C389.55 159.534 376.675 151.633 367.15 151.633C357.626 151.633 349.951 155.523 347.029 160.215V160.195Z" fill="#263238"/>
<path opacity="0.2" d="M381.758 499.147L412.826 486.534C412.67 478.894 412.417 470.792 412.047 462.41L377.551 475.344C379.09 483.847 380.492 491.908 381.739 499.147H381.758Z" fill="black"/>
<path opacity="0.2" d="M453.594 446.809L417.559 460.325C420.402 467.584 423.149 474.642 425.72 481.3L458.872 467.844C457.294 461.047 455.502 453.988 453.613 446.809H453.594Z" fill="black"/>
<path d="M362.96 182.273C362.921 183.617 362.201 184.68 361.363 184.639C360.506 184.619 359.863 183.517 359.902 182.173C359.941 180.829 360.662 179.767 361.499 179.807C362.337 179.847 362.999 180.93 362.96 182.273Z" fill="#263238"/>
<path d="M348.294 181.832C348.255 183.176 347.534 184.238 346.697 184.198C345.84 184.178 345.197 183.075 345.236 181.732C345.275 180.388 345.996 179.325 346.833 179.366C347.69 179.386 348.333 180.489 348.294 181.832Z" fill="#263238"/>
<path d="M347.203 179.466L344.105 178.443C344.105 178.443 345.644 180.99 347.203 179.466Z" fill="#263238"/>
<path d="M352.112 184.258C352.112 184.258 349.755 189.953 347.242 192.66C348.917 194.365 351.839 193.683 351.839 193.683L352.092 184.258H352.112Z" fill="#FF5652"/>
<path d="M356.456 198.657C355.774 198.757 355.054 198.817 354.274 198.777C354.06 198.777 353.904 198.596 353.904 198.376C353.904 198.155 354.08 197.995 354.294 197.995C359.982 198.155 362.767 194.145 362.786 194.105C362.903 193.924 363.137 193.884 363.312 194.004C363.488 194.125 363.527 194.365 363.41 194.546C363.312 194.706 361.072 197.935 356.436 198.657H356.456Z" fill="#263238"/>
<path d="M389.724 186.645C388.945 189.953 386.744 192.58 384.387 194.004C380.861 196.129 378.057 193.142 378.173 189.151C378.271 185.562 380.238 180.127 384.212 179.626C388.127 179.125 390.64 182.875 389.744 186.665L389.724 186.645Z" fill="#FF8B7B"/>
<path d="M368.413 175.375C368.218 175.375 368.004 175.315 367.848 175.174C365.374 172.788 362.628 173.43 362.608 173.45C362.199 173.55 361.79 173.289 361.693 172.868C361.595 172.447 361.849 172.026 362.258 171.926C362.394 171.886 365.822 171.064 368.9 174.031C369.211 174.332 369.231 174.834 368.939 175.134C368.802 175.295 368.608 175.375 368.432 175.375H368.413Z" fill="#263238"/>
<path d="M344.457 174.111C344.262 174.071 344.106 173.971 343.989 173.791C343.755 173.43 343.833 172.948 344.184 172.708C347.651 170.241 350.923 171.585 351.06 171.645C351.449 171.805 351.644 172.267 351.469 172.668C351.313 173.069 350.865 173.269 350.475 173.089C350.339 173.029 347.787 172.026 345.041 173.991C344.866 174.111 344.651 174.152 344.457 174.111Z" fill="#263238"/>
<path d="M361.869 179.887L358.771 178.864C358.771 178.864 360.31 181.411 361.869 179.887Z" fill="#263238"/>
<path d="M353.203 350.476L375.837 488.178L460.509 462.31C453.594 389.558 436.025 353.504 420.812 340.168L353.203 350.476Z" fill="#263238"/>
<path opacity="0.2" d="M387.504 427.859L404.431 399.204L401.548 379.071L387.504 427.859Z" fill="black"/>
<path d="M411.812 237.038C413.254 238.361 415.026 239.885 416.662 241.309C418.338 242.733 420.071 244.136 421.805 245.5C425.291 248.207 428.817 250.894 432.459 253.3C439.725 258.093 447.341 262.264 454.957 264.43C455.424 264.59 455.911 264.67 456.379 264.791L457.08 264.971C457.294 265.031 457.08 264.971 457.002 264.971H456.729C455.931 265.011 455.658 265.332 455.872 265.232C456.34 265.071 457.645 263.808 458.697 262.304C460.898 259.196 462.982 255.225 464.813 251.175C466.722 247.104 468.475 242.853 470.092 238.521C471.767 234.23 473.344 229.778 474.883 225.467L474.922 225.367C475.701 223.181 478.039 222.058 480.162 222.84C482.012 223.542 483.084 225.447 482.811 227.372C481.486 237.078 479.441 246.442 476.461 255.947C474.864 260.68 473.169 265.392 470.325 270.245C468.826 272.651 467.248 275.218 463.878 277.745C462.183 278.948 459.671 280.191 456.554 280.211C456.184 280.211 455.795 280.211 455.424 280.151C455.074 280.111 454.567 280.051 454.489 280.031L453.496 279.85C452.853 279.73 452.172 279.63 451.529 279.489C446.348 278.406 441.517 276.662 436.901 274.596C432.304 272.531 427.96 270.105 423.792 267.498C419.623 264.871 415.591 262.103 411.734 259.076C409.806 257.572 407.917 256.027 406.066 254.423C404.177 252.819 402.443 251.255 400.495 249.35C397.204 246.121 397.067 240.767 400.184 237.378C403.261 234.05 408.326 233.849 411.637 236.877L411.793 237.017L411.812 237.038Z" fill="#FF8B7B"/>
<path d="M402.053 230.099C413.643 229.398 418.181 235.654 422.992 242.392C420.616 253.14 407.955 271.528 407.955 271.528C407.955 271.528 381.016 231.383 402.053 230.099Z" fill="#FF438B"/>
<path d="M474.357 226.41L477.279 208.763L487.836 221.637C487.836 221.637 484.135 231.563 477.493 232.446L474.338 226.43L474.357 226.41Z" fill="#FF8B7B"/>
<path d="M486.94 203.97L493.29 209.706C494.459 210.748 494.654 212.533 493.758 213.836L486.707 224.103L477.26 208.783L483.006 203.91C484.155 202.948 485.791 202.968 486.902 203.97H486.94Z" fill="#FF8B7B"/>
<path d="M375.564 702.402C377.181 700.998 379.771 699.855 382.07 699.013C382.07 699.013 393.601 692.315 399.62 672.142L412.943 668.713C414.345 668.352 415.748 669.335 415.923 670.819C416.04 671.902 416.118 673.145 416.254 674.147C416.507 676.012 416.293 678.86 416.254 680.705C416.137 687.523 415.397 702.843 415.397 702.843H413.858C413.858 702.843 413.819 693.418 413.04 688.946C412.261 684.455 409.184 689.769 407.469 694.842C405.736 699.915 398.802 705.329 388.731 705.59C376.927 705.891 372.136 705.35 375.564 702.402Z" fill="#263238"/>
<path d="M524.3 655.077C524.475 652.912 525.527 650.205 526.579 647.939C526.579 647.939 530.124 634.804 520.482 616.175L527.534 604.023C528.274 602.74 529.949 602.419 531.079 603.341C531.916 604.023 532.812 604.845 533.611 605.447C535.072 606.59 536.864 608.756 538.11 610.079C542.707 614.972 552.739 626.322 552.739 626.322L551.648 627.445C551.648 627.445 545.142 620.827 541.499 618.22C537.877 615.614 539.357 621.609 541.616 626.462C543.895 631.315 542.727 640.178 535.773 647.718C527.65 656.521 523.891 659.649 524.281 655.057L524.3 655.077Z" fill="#263238"/>
<path opacity="0.9" d="M472.953 78.4004L267.593 58.1471C257.094 57.1043 247.705 65.1054 246.692 75.8938L217.241 392.246C216.228 403.055 224 412.72 234.479 413.763L439.84 434.016C450.338 435.059 459.727 427.058 460.74 416.269L490.191 99.917C491.204 89.1085 483.432 79.4431 472.953 78.4004ZM428.99 199.579C425.27 239.544 390.774 268.861 351.953 265.031C325.658 262.445 304.134 245.32 294.122 222.139C289.35 211.089 287.188 198.637 288.376 185.723C292.096 145.738 326.593 116.44 365.413 120.271C371.743 120.892 377.782 122.356 383.45 124.542C389.04 126.687 394.28 129.535 399.052 132.984C414.401 144.013 425.153 161.098 428.328 180.549C429.341 186.685 429.574 193.082 428.971 199.579H428.99Z" fill="white"/>
<path d="M369.154 0.956286L391.398 5.28768C396.93 6.37053 400.981 12.0054 400.358 17.8407L396.053 58.1869C395.995 58.7283 395.917 59.2497 395.761 59.751C394.495 64.684 389.859 67.7921 384.834 66.8296L362.589 62.4982C357.564 61.5156 353.766 56.7832 353.59 51.5494C353.551 51.028 353.59 50.4866 353.629 49.9452L357.934 9.59903C358.557 3.76367 363.602 -0.10651 369.154 0.976339V0.956286ZM378.464 20.227C374.043 19.3647 370.05 22.4328 369.543 27.065C369.037 31.7172 372.251 36.189 376.672 37.0513C381.094 37.9135 385.087 34.8455 385.593 30.1932C386.08 25.561 382.886 21.0893 378.464 20.227Z" fill="#263238"/>
<path d="M437.698 86.4212C436.802 86.4212 435.945 85.9198 435.536 85.0375L426.946 66.7494C425.758 64.2428 423.362 62.5183 420.655 62.2375L321.88 52.4919C319.172 52.2312 316.504 53.4544 314.887 55.6803L303.083 71.9431C302.285 73.0259 300.785 73.2665 299.733 72.4444C298.681 71.6222 298.447 70.0782 299.246 68.9953L311.05 52.7325C313.66 49.123 318.004 47.1579 322.347 47.579L421.122 57.3246C425.466 57.7457 429.361 60.533 431.251 64.5837L439.841 82.8718C440.425 84.095 439.919 85.5789 438.73 86.1605C438.399 86.3209 438.029 86.4011 437.698 86.4011V86.4212Z" fill="black"/>
<path d="M235.375 142.789L233.777 142.629L234.868 130.838L236.465 130.998L235.375 142.789ZM237.498 120.009L235.9 119.849L238.374 93.1787L239.971 93.3391L237.498 120.009Z" fill="#FF4343"/>
<path d="M441.691 434.958C441.048 434.958 440.405 434.918 439.763 434.858L234.402 414.605C229.124 414.083 224.332 411.456 220.923 407.205C217.515 402.954 215.918 397.62 216.424 392.186L245.875 75.8334C246.382 70.3991 248.933 65.4661 253.063 61.9569C257.192 58.4476 262.373 56.8234 267.652 57.3247L473.012 77.578C478.291 78.0993 483.082 80.7262 486.491 84.9774C489.9 89.2286 491.497 94.5626 490.991 99.9969L461.539 416.349C461.033 421.784 458.481 426.717 454.352 430.226C450.729 433.294 446.288 434.938 441.691 434.938V434.958ZM265.743 58.8888C261.497 58.8888 257.426 60.3927 254.095 63.2402C250.297 66.4687 247.959 71.0006 247.492 75.9938L218.041 392.346C217.573 397.359 219.034 402.252 222.17 406.162C225.306 410.073 229.708 412.479 234.558 412.96L439.918 433.214C444.788 433.715 449.541 432.191 453.339 428.962C457.137 425.734 459.475 421.202 459.942 416.209L489.393 99.8566C489.861 94.8434 488.4 89.9505 485.264 86.0402C482.128 82.1299 477.726 79.7236 472.876 79.2423L267.516 58.989C266.931 58.9289 266.327 58.9088 265.743 58.9088V58.8888ZM358.83 266.194C356.532 266.194 354.214 266.074 351.896 265.853C326.301 263.327 303.882 246.703 293.422 222.479C288.455 210.969 286.449 198.235 287.617 185.642C291.377 145.276 326.34 115.598 365.531 119.468C371.822 120.09 377.958 121.554 383.762 123.8C389.333 125.925 394.631 128.793 399.54 132.342C415.2 143.592 425.991 161.118 429.147 180.429C430.179 186.725 430.413 193.202 429.809 199.679C427.998 219.231 418.882 236.877 404.176 249.37C391.261 260.339 375.387 266.194 358.85 266.194H358.83ZM358.655 120.772C323.126 120.772 292.662 148.665 289.195 185.803C288.046 198.115 290.013 210.568 294.863 221.817C305.109 245.5 327.002 261.763 352.032 264.229C370.595 266.074 388.749 260.339 403.143 248.107C417.538 235.894 426.439 218.629 428.212 199.519C428.796 193.182 428.582 186.845 427.569 180.689C424.492 161.8 413.934 144.674 398.624 133.666C393.813 130.196 388.632 127.389 383.197 125.324C377.529 123.118 371.53 121.714 365.375 121.092C363.115 120.872 360.875 120.752 358.655 120.752V120.772Z" fill="black"/>
<path opacity="0.8" d="M383.448 124.542C377.78 122.356 371.742 120.892 365.411 120.27C326.572 116.44 292.095 145.737 288.375 185.723C287.167 198.637 289.329 211.089 294.121 222.138L227.836 278.447L246.691 75.9137C247.704 65.1053 257.092 57.1243 267.591 58.167L335.629 64.8847L357.425 92.0763L383.468 124.562L383.448 124.542Z" fill="#FF4343"/>
<path opacity="0.5" d="M490.19 99.9165L477.023 241.288L428.327 180.529C425.152 161.077 414.4 143.992 399.051 132.963L464.303 77.5376L472.932 78.3798C483.431 79.4226 491.183 89.108 490.17 99.8964L490.19 99.9165Z" fill="#FF4343"/>
<path d="M464.303 77.5581L399.05 132.984C394.278 129.535 389.038 126.687 383.448 124.542L357.406 92.0563L335.609 64.8647L464.303 77.5581Z" fill="#FF4343"/>
<path opacity="0.5" d="M410.595 296.036L288.711 284.02C286.666 283.818 284.849 285.362 284.653 287.468L284.044 294.015C283.848 296.121 285.348 297.991 287.393 298.193L409.276 310.209C411.322 310.41 413.138 308.867 413.334 306.761L413.943 300.214C414.139 298.108 412.64 296.238 410.595 296.036Z" fill="#FF4343"/>
<path opacity="0.5" d="M398.681 320.614L295.877 310.479C293.832 310.278 292.015 311.821 291.819 313.927L291.21 320.474C291.014 322.58 292.514 324.45 294.559 324.652L397.363 334.787C399.408 334.988 401.225 333.445 401.421 331.339L402.03 324.792C402.226 322.686 400.726 320.816 398.681 320.614Z" fill="#FF4343"/>
<path opacity="0.5" d="M279.267 374.151L248.709 371.139L248.23 376.289L278.788 379.302L279.267 374.151Z" fill="#FF4343"/>
<path opacity="0.5" d="M310.793 377.249L286.148 374.82L285.669 379.97L310.314 382.399L310.793 377.249Z" fill="#FF4343"/>
<path opacity="0.5" d="M318.463 389.716L247.633 382.733L247.154 387.883L317.984 394.866L318.463 389.716Z" fill="#FF4343"/>
<path opacity="0.5" d="M332.858 367.734L249.773 359.543L249.294 364.693L332.379 372.884L332.858 367.734Z" fill="#FF4343"/>
<path d="M389.294 4.40539L366.757 0.174262C361.148 -0.888534 355.713 3.02175 354.7 8.85711L347.669 49.2634C347.571 49.8048 347.513 50.3463 347.513 50.8676C347.357 56.1014 350.941 60.8339 356.025 61.7763L378.561 66.0075C383.645 66.97 388.593 63.8217 390.229 58.8887C390.404 58.4075 390.54 57.8661 390.638 57.3246L397.669 16.9183C398.682 11.083 394.903 5.44814 389.294 4.40539ZM375.036 19.4249C379.516 20.2671 382.496 24.7188 381.697 29.3711C380.879 34.0434 376.574 37.1114 372.114 36.2692C367.634 35.427 364.654 30.9753 365.452 26.303C366.27 21.6508 370.556 18.5626 375.036 19.4049V19.4249Z" fill="#263238"/>
<path opacity="0.2" d="M389.294 4.40539L366.757 0.174262C361.148 -0.888534 355.713 3.02175 354.7 8.85711L347.669 49.2634C347.571 49.8048 347.513 50.3463 347.513 50.8676C347.357 56.1014 350.941 60.8339 356.025 61.7763L378.561 66.0075C383.645 66.97 388.593 63.8217 390.229 58.8887C390.404 58.4075 390.54 57.8661 390.638 57.3246L397.669 16.9183C398.682 11.083 394.903 5.44814 389.294 4.40539ZM375.036 19.4249C379.516 20.2671 382.496 24.7188 381.697 29.3711C380.879 34.0434 376.574 37.1114 372.114 36.2692C367.634 35.427 364.654 30.9753 365.452 26.303C366.27 21.6508 370.556 18.5626 375.036 19.4049V19.4249Z" fill="white"/>
<path opacity="0.2" d="M431.349 401.826C437.231 396.828 438.065 387.867 433.21 381.811C428.356 375.755 419.652 374.897 413.769 379.894C407.886 384.892 407.053 393.853 411.907 399.909C416.762 405.965 425.466 406.823 431.349 401.826Z" fill="#FF4343"/>
<path opacity="0.8" d="M394.78 398.213C400.663 393.216 401.497 384.255 396.642 378.198C391.787 372.142 383.083 371.284 377.2 376.282C371.318 381.279 370.484 390.24 375.339 396.297C380.193 402.353 388.898 403.211 394.78 398.213Z" fill="#FF4343"/>
</svg>
