<svg width="538" height="528" viewBox="0 0 538 528" fill="none" xmlns="http://www.w3.org/2000/svg">
<g clip-path="url(#clip0_102_147)">
<path d="M538 355.261H331.646V235.833H538V355.261ZM332.905 354.002H536.741V237.093H332.905V354.002Z" fill="#E0E0E0"/>
<path d="M495.422 299.507H359.25V303.499H495.422V299.507Z" fill="#F0F0F0"/>
<path d="M504.804 314.403H359.25V318.759H504.804V314.403Z" fill="#F0F0F0"/>
<path d="M504.804 329.462H359.25V333.818H504.804V329.462Z" fill="#F0F0F0"/>
<path d="M406.84 277.901H359.25V288.263H406.84V277.901Z" fill="#F0F0F0"/>
<path d="M537.37 236.463H332.275V255.476H537.37V236.463Z" fill="#E0E0E0"/>
<path d="M521.59 252.643C521.326 252.391 523.971 249.205 527.497 245.529C531.023 241.852 534.083 239.069 534.348 239.321C534.612 239.573 531.967 242.759 528.441 246.435C524.915 250.112 521.855 252.895 521.59 252.643Z" fill="white"/>
<path d="M534.335 252.643C534.07 252.895 531.01 250.112 527.484 246.435C523.958 242.759 521.313 239.573 521.578 239.321C521.842 239.069 524.902 241.852 528.429 245.529C531.955 249.205 534.599 252.391 534.335 252.643Z" fill="white"/>
<path d="M284.03 0H78.9346V118.169H284.03V0Z" fill="#E6E6E6"/>
<path d="M242.094 63.0442H105.922V67.0356H242.094V63.0442Z" fill="#F0F0F0"/>
<path d="M251.476 77.927H105.922V82.2836H251.476V77.927Z" fill="#F0F0F0"/>
<path d="M251.476 92.9861H105.922V97.3426H251.476V92.9861Z" fill="#F0F0F0"/>
<path d="M153.512 41.425H105.922V51.7876H153.512V41.425Z" fill="#F0F0F0"/>
<path d="M284.03 0H78.9346V19.0127H284.03V0Z" fill="#E0E0E0"/>
<path d="M267.557 16.079C267.293 15.8272 269.937 12.6416 273.464 8.965C276.99 5.28836 280.05 2.5057 280.314 2.75753C280.579 3.00935 277.934 6.19493 274.408 9.87157C270.882 13.5482 267.822 16.3309 267.557 16.079Z" fill="white"/>
<path d="M280.302 16.079C280.037 16.3309 276.977 13.5482 273.451 9.87157C269.925 6.19493 267.28 3.00935 267.545 2.75753C267.809 2.5057 270.869 5.28836 274.395 8.965C277.922 12.6416 280.566 15.8272 280.302 16.079Z" fill="white"/>
<path d="M206.354 219.515H0V100.088H206.354V219.515ZM1.25933 218.256H205.095V101.347H1.25933V218.256Z" fill="#E0E0E0"/>
<path d="M163.789 163.761H27.6172V167.753H163.789V163.761Z" fill="#F0F0F0"/>
<path d="M173.171 178.644H27.6172V183.001H173.171V178.644Z" fill="#F0F0F0"/>
<path d="M173.171 193.703H27.6172V198.06H173.171V193.703Z" fill="#F0F0F0"/>
<path d="M75.2074 142.142H27.6172V152.505H75.2074V142.142Z" fill="#F0F0F0"/>
<path d="M205.725 100.717H0.629883V119.73H205.725V100.717Z" fill="#E0E0E0"/>
<path d="M444.507 246.876H202.337V463.646H444.507V246.876Z" fill="#E6E6E6"/>
<path d="M214.515 178.594H24.8086V375.659H214.515V178.594Z" fill="#F0F0F0"/>
<path d="M214.515 178.594H24.8086V200.062H214.515V178.594Z" fill="#E0E0E0"/>
<path d="M40.4746 189.107C40.4746 191.412 38.6864 193.275 36.4951 193.275C34.3039 193.275 32.5156 191.412 32.5156 189.107C32.5156 186.803 34.3039 184.94 36.4951 184.94C38.6864 184.94 40.4746 186.803 40.4746 189.107Z" fill="white"/>
<path d="M56.6318 189.107C56.6318 191.412 54.8436 193.275 52.6523 193.275C50.4611 193.275 48.6729 191.412 48.6729 189.107C48.6729 186.803 50.4611 184.94 52.6523 184.94C54.8436 184.94 56.6318 186.803 56.6318 189.107Z" fill="white"/>
<path d="M72.7891 189.107C72.7891 191.412 71.0008 193.275 68.8096 193.275C66.6183 193.275 64.8301 191.412 64.8301 189.107C64.8301 186.803 66.6183 184.94 68.8096 184.94C71.0008 184.94 72.7891 186.803 72.7891 189.107Z" fill="white"/>
<path d="M510.912 43.0996H268.742V284.423H510.912V43.0996Z" fill="#F0F0F0"/>
<path d="M510.912 43.0996H268.742V71.3669H510.912V43.0996Z" fill="#E0E0E0"/>
<path d="M289.37 56.9498C289.37 59.9717 287.028 62.427 284.131 62.427C281.235 62.427 278.893 59.9717 278.893 56.9498C278.893 53.9279 281.235 51.4727 284.131 51.4727C287.028 51.4727 289.37 53.9279 289.37 56.9498Z" fill="white"/>
<path d="M309.103 53.2356C311.244 55.3761 311.32 58.7757 309.267 60.8155C307.214 62.8678 303.827 62.7923 301.686 60.6518C299.545 58.5113 299.47 55.1117 301.522 53.0719C303.575 51.0321 306.963 51.0951 309.103 53.2356Z" fill="white"/>
<path d="M331.91 56.9498C331.91 59.9717 329.568 62.427 326.671 62.427C323.775 62.427 321.433 59.9717 321.433 56.9498C321.433 53.9279 323.775 51.4727 326.671 51.4727C329.568 51.4727 331.91 53.9279 331.91 56.9498Z" fill="white"/>
<path d="M458.599 527.673C458.599 527.849 371.151 528 263.301 528C155.452 528 67.9912 527.849 67.9912 527.673C67.9912 527.496 155.414 527.345 263.301 527.345C371.188 527.345 458.599 527.496 458.599 527.673Z" fill="#263238"/>
<path d="M417.922 32.2588L411.436 34.5756L408.666 26.1017C403.553 10.476 387.219 2.11544 372.271 7.45412C357.323 12.8054 349.326 29.8665 354.452 45.4922L357.222 53.9661L350.711 56.2954C345.649 58.1086 342.904 63.9383 344.641 69.2392L362.7 124.376C364.463 129.753 370.055 132.623 375.117 130.81L442.328 106.774C447.466 104.935 450.211 99.0804 448.448 93.7039L430.389 38.567C428.652 33.2661 423.06 30.4205 417.922 32.2588ZM366.692 41.1104C363.884 32.5484 368.266 23.1931 376.465 20.2594C384.65 17.3256 393.604 21.9214 396.4 30.4834L399.171 38.9573L369.463 49.5843L366.692 41.1104ZM404.485 90.0273L409.094 104.104C409.283 104.696 408.943 105.313 408.376 105.514L401.928 107.819C401.437 107.995 400.808 107.731 400.606 107.139L395.997 93.0618C390.997 92.8477 386.363 89.5362 384.625 84.2479C382.396 77.4361 385.885 69.9947 392.42 67.6527C398.956 65.3107 406.072 68.9622 408.301 75.774C410.039 81.0749 408.301 86.6529 404.485 90.0273Z" fill="#E8505B"/>
<path d="M411.147 34.4372C411.21 34.6135 399.12 39.1337 384.147 44.5479C369.173 49.9622 356.983 54.2054 356.92 54.0417C356.857 53.8654 368.947 49.3452 383.92 43.931C398.894 38.5168 411.084 34.2735 411.134 34.4372H411.147Z" fill="#263238"/>
<path d="M425.427 36.7539C425.427 36.7539 425.49 36.8672 425.579 37.0813C425.679 37.3331 425.793 37.6605 425.944 38.0634C426.271 38.9826 426.712 40.2543 427.291 41.8785C428.45 45.253 430.1 50.0502 432.127 55.9555C434.155 61.9237 436.547 69 439.217 76.8569C440.527 80.798 441.975 84.9027 443.348 89.2341C443.99 91.4124 444.519 93.7292 444.292 96.1467C444.179 97.3428 443.852 98.539 443.272 99.6344C442.68 100.717 441.849 101.662 440.892 102.442C438.953 103.991 436.686 104.898 434.495 105.703C432.291 106.497 430.125 107.265 427.997 108.033C423.74 109.556 419.635 111.029 415.718 112.427C407.898 115.21 400.858 117.715 394.926 119.831C389.033 121.908 384.247 123.583 380.885 124.766C379.26 125.321 377.976 125.761 377.056 126.076C376.641 126.214 376.313 126.315 376.062 126.403C375.835 126.479 375.722 126.504 375.709 126.491C375.709 126.491 375.81 126.429 376.036 126.34C376.288 126.24 376.616 126.114 377.019 125.95C377.925 125.61 379.197 125.132 380.809 124.527C384.159 123.293 388.919 121.543 394.775 119.39C400.694 117.237 407.721 114.694 415.529 111.86C419.433 110.45 423.539 108.965 427.795 107.428C429.923 106.66 432.089 105.88 434.281 105.086C436.447 104.281 438.663 103.387 440.489 101.926C441.396 101.196 442.164 100.314 442.706 99.3196C443.247 98.3124 443.549 97.2043 443.65 96.0837C443.864 93.8173 443.36 91.5635 442.743 89.423C441.383 85.1419 439.948 80.9994 438.651 77.0584C436.031 69.1889 433.676 62.0874 431.699 56.1066C429.76 50.1761 428.173 45.3537 427.065 41.9667C426.548 40.3298 426.133 39.0329 425.83 38.1138C425.705 37.6982 425.604 37.3709 425.528 37.1065C425.465 36.8798 425.44 36.7539 425.44 36.7539H425.427Z" fill="#263238"/>
<path d="M389.965 19.3905C389.965 19.3905 389.298 19.0505 388.063 18.5595C386.817 18.081 384.94 17.527 382.56 17.4514C380.193 17.3633 377.321 17.7285 374.45 18.9876C371.591 20.2215 368.77 22.425 366.755 25.4217C364.703 28.4058 363.796 31.8558 363.796 34.9784C363.771 38.1262 364.438 40.9215 365.081 43.2131C365.748 45.5173 366.428 47.3304 366.869 48.6021C367.322 49.8738 367.561 50.5663 367.524 50.5915C367.486 50.6041 367.158 49.9368 366.63 48.6902C366.113 47.4437 365.358 45.6432 364.64 43.339C363.935 41.0348 363.204 38.2018 363.192 34.9658C363.154 31.7425 364.086 28.1288 366.214 25.0439C368.304 21.9465 371.239 19.6801 374.211 18.421C377.195 17.1493 380.167 16.8345 382.585 16.9856C385.028 17.1241 386.93 17.7662 388.164 18.3202C388.769 18.6224 389.235 18.8617 389.537 19.0631C389.839 19.252 389.99 19.3653 389.978 19.3905H389.965Z" fill="#263238"/>
<path d="M390.544 68.66C390.544 68.66 390.758 68.5341 391.187 68.3452C391.615 68.1437 392.257 67.8919 393.126 67.6401C393.982 67.3757 395.091 67.1742 396.4 67.0987C397.697 67.0357 399.234 67.1742 400.821 67.7534C404.032 68.8866 407.004 72.1729 408.465 76.5295C409.17 78.7329 409.233 81.289 408.528 83.7568C407.772 86.2121 406.399 88.5793 404.41 90.5687L404.498 90.2287C406.173 94.8119 407.986 99.8106 409.888 105.011L410.001 105.326L409.686 105.426C408.78 105.729 407.797 106.056 406.802 106.396C404.687 107.101 402.584 107.806 400.531 108.499L400.216 108.599L400.115 108.285C398.39 103.059 396.501 98.1486 395.128 93.4395L395.405 93.6535C392.824 93.4773 390.507 92.3944 388.668 90.9842C386.817 89.5614 385.394 87.7986 384.437 85.9351C383.492 84.0716 383.026 82.0948 383.102 80.2691C383.152 78.4434 383.568 76.7939 384.16 75.4089C385.331 72.601 387.081 70.8383 388.378 69.8687C389.701 68.8992 390.557 68.6474 390.557 68.6474C390.582 68.6978 389.764 69.0251 388.492 70.0198C387.257 71.0145 385.583 72.7773 384.487 75.5348C383.391 78.2293 382.913 82.0948 384.877 85.7085C385.822 87.4964 387.207 89.1837 388.995 90.5435C390.784 91.8908 393 92.8981 395.431 93.0492H395.645L395.708 93.2632C397.093 97.9346 398.994 102.833 400.732 108.083L400.317 107.882C402.37 107.189 404.46 106.497 406.576 105.779C407.558 105.452 408.54 105.124 409.46 104.809L409.258 105.225C407.369 100.025 405.568 95.026 403.906 90.4302L403.843 90.2413L403.994 90.0902C405.883 88.2267 407.256 85.9225 407.974 83.5806C408.666 81.2134 408.616 78.7833 407.974 76.668C406.601 72.4373 403.767 69.2266 400.695 68.0934C399.183 67.5016 397.697 67.3379 396.425 67.3757C395.154 67.426 394.058 67.5771 393.202 67.8164C391.476 68.2571 390.595 68.6852 390.57 68.6348L390.544 68.66Z" fill="#263238"/>
<path d="M351.618 432.206L225.836 431.627C210.711 431.564 198.496 419.237 198.559 404.115L199.894 88.8311C199.957 73.6964 212.286 61.4829 227.423 61.5459L353.205 62.1251C368.33 62.2006 380.545 74.5148 380.482 89.6369L379.147 404.921C379.084 420.056 366.755 432.269 351.618 432.193V432.206Z" fill="#455A64"/>
<path d="M353.029 73.0166L328.636 72.9032C325.361 72.8907 322.704 75.6481 322.692 79.0604L322.666 83.4799C322.654 86.8921 319.984 89.6622 316.722 89.637L269.183 89.4229C265.908 89.4103 263.276 86.6277 263.289 83.2029L263.314 78.7833C263.327 75.3711 260.695 72.5759 257.42 72.5633L248.844 72.5255L227.499 72.4248C216.895 72.3744 208.269 80.9364 208.218 91.5257L206.921 399.268C206.871 409.857 215.422 418.482 226.025 418.532L351.556 419.111C362.159 419.162 370.786 410.612 370.836 400.01L372.133 92.2685C372.184 81.6793 363.633 73.0543 353.029 73.004V73.0166Z" fill="white"/>
<path d="M336.129 378.076L242.787 377.648C241.817 377.648 241.036 376.591 241.049 375.294L241.15 350.879C241.15 349.582 241.943 348.537 242.913 348.55L336.255 348.978C337.224 348.978 338.005 350.036 337.993 351.333L337.892 375.747C337.892 377.044 337.098 378.089 336.129 378.076Z" fill="#E8505B"/>
<path d="M271.753 362.243C271.141 362.241 270.554 362.14 269.99 361.941C269.435 361.735 269.005 361.474 268.701 361.16L269.045 360.491C269.333 360.774 269.72 361.015 270.205 361.213C270.698 361.404 271.215 361.5 271.756 361.503C272.273 361.505 272.693 361.444 273.015 361.32C273.345 361.188 273.585 361.013 273.735 360.794C273.892 360.576 273.972 360.333 273.973 360.066C273.974 359.745 273.882 359.486 273.694 359.289C273.515 359.092 273.277 358.938 272.979 358.827C272.682 358.708 272.353 358.605 271.993 358.517C271.633 358.429 271.273 358.338 270.912 358.242C270.552 358.138 270.22 358.004 269.915 357.838C269.618 357.672 269.376 357.455 269.189 357.188C269.01 356.912 268.921 356.555 268.923 356.116C268.925 355.709 269.033 355.337 269.246 355.001C269.467 354.657 269.801 354.384 270.249 354.182C270.697 353.973 271.269 353.87 271.967 353.873C272.429 353.875 272.888 353.944 273.342 354.079C273.796 354.206 274.187 354.385 274.515 354.613L274.218 355.306C273.866 355.069 273.491 354.895 273.092 354.783C272.7 354.672 272.32 354.615 271.952 354.613C271.458 354.611 271.05 354.676 270.728 354.808C270.406 354.94 270.166 355.119 270.009 355.345C269.859 355.564 269.783 355.815 269.782 356.097C269.78 356.418 269.869 356.677 270.049 356.874C270.236 357.071 270.478 357.225 270.776 357.336C271.081 357.447 271.413 357.547 271.774 357.634C272.134 357.722 272.49 357.818 272.842 357.921C273.202 358.025 273.531 358.16 273.828 358.326C274.133 358.484 274.375 358.697 274.554 358.964C274.741 359.231 274.833 359.58 274.832 360.012C274.83 360.411 274.718 360.783 274.497 361.127C274.276 361.463 273.938 361.736 273.482 361.945C273.035 362.147 272.458 362.247 271.753 362.243ZM276.717 362.195L276.755 353.965L277.625 353.969L277.587 362.199L276.717 362.195ZM280.265 362.211L280.303 353.981L281.02 353.984L286.666 361.159L286.29 361.157L286.322 354.008L287.181 354.012L287.143 362.243L286.426 362.239L280.792 355.065L281.168 355.067L281.135 362.215L280.265 362.211ZM293.439 362.342C292.812 362.339 292.232 362.234 291.7 362.028C291.176 361.814 290.719 361.518 290.329 361.14C289.946 360.762 289.646 360.318 289.429 359.807C289.22 359.297 289.117 358.74 289.119 358.136C289.122 357.533 289.23 356.977 289.444 356.468C289.666 355.96 289.974 355.518 290.367 355.144C290.761 354.769 291.221 354.481 291.747 354.28C292.281 354.071 292.862 353.968 293.489 353.97C294.116 353.973 294.687 354.074 295.204 354.272C295.728 354.471 296.174 354.77 296.54 355.172L295.997 355.722C295.653 355.376 295.274 355.127 294.86 354.976C294.445 354.825 293.998 354.749 293.52 354.747C293.011 354.744 292.54 354.828 292.108 354.999C291.684 355.162 291.311 355.399 290.988 355.711C290.673 356.015 290.425 356.375 290.242 356.789C290.068 357.196 289.98 357.646 289.978 358.14C289.975 358.626 290.06 359.077 290.23 359.494C290.409 359.91 290.654 360.275 290.966 360.59C291.286 360.897 291.657 361.138 292.08 361.313C292.51 361.479 292.976 361.564 293.478 361.566C293.948 361.568 294.391 361.499 294.807 361.36C295.231 361.221 295.62 360.984 295.974 360.648L296.465 361.309C296.072 361.652 295.612 361.913 295.086 362.09C294.56 362.261 294.011 362.344 293.439 362.342ZM295.631 361.199L295.645 358.166L296.48 358.17L296.465 361.309L295.631 361.199ZM305.316 362.396C304.265 362.391 303.44 362.085 302.839 361.479C302.238 360.873 301.94 359.978 301.946 358.794L301.967 354.079L302.837 354.083L302.816 358.763C302.812 359.735 303.028 360.453 303.465 360.917C303.902 361.382 304.52 361.616 305.319 361.62C306.127 361.623 306.751 361.395 307.192 360.934C307.633 360.474 307.856 359.758 307.86 358.786L307.881 354.106L308.728 354.11L308.706 358.825C308.701 360.008 308.395 360.901 307.789 361.501C307.19 362.102 306.366 362.4 305.316 362.396ZM311.312 362.352L311.35 354.122L314.43 354.136C315.128 354.139 315.727 354.256 316.227 354.485C316.728 354.707 317.111 355.03 317.375 355.454C317.648 355.871 317.783 356.377 317.78 356.973C317.777 357.553 317.638 358.054 317.361 358.476C317.093 358.89 316.708 359.21 316.205 359.435C315.702 359.66 315.102 359.771 314.404 359.768L311.806 359.756L312.196 359.346L312.182 362.356L311.312 362.352ZM312.196 359.417L311.81 358.992L314.384 359.003C315.207 359.007 315.831 358.834 316.256 358.483C316.689 358.124 316.907 357.62 316.91 356.969C316.913 356.311 316.7 355.8 316.27 355.438C315.848 355.075 315.226 354.892 314.403 354.888L311.828 354.877L312.218 354.467L312.196 359.417Z" fill="#E8E8E3"/>
<path d="M261.399 163.435L229.009 163.288L228.982 169.231L261.372 169.378L261.399 163.435Z" fill="#E8505B"/>
<path opacity="0.1" d="M261.399 163.435L229.009 163.288L228.982 169.231L261.372 169.378L261.399 163.435Z" fill="black"/>
<path d="M356.354 199.911C356.354 199.911 356.618 199.923 357.097 199.734C357.537 199.558 358.243 199.029 358.318 198.035C358.318 196.033 358.318 193.111 358.306 189.359C358.306 187.471 358.306 185.38 358.306 183.089C358.306 182.51 358.306 181.93 358.306 181.326C358.318 180.709 358.318 180.142 357.953 179.677C357.626 179.211 357.059 178.909 356.467 178.909C355.825 178.909 355.157 178.909 354.49 178.909C349.138 178.909 343.03 178.883 336.305 178.871C309.33 178.77 272.092 178.632 230.974 178.48C230.433 178.48 229.904 178.745 229.589 179.186C229.236 179.626 229.249 180.155 229.262 180.835C229.262 182.107 229.262 183.391 229.249 184.65C229.249 187.194 229.224 189.712 229.211 192.217C229.211 193.464 229.211 194.723 229.199 195.957C229.224 196.549 229.136 197.267 229.249 197.732C229.375 198.236 229.753 198.664 230.231 198.866C230.483 198.966 230.71 199.004 231.012 199.004H231.931L233.77 199.017C234.992 199.017 236.213 199.017 237.422 199.029C247.119 199.08 256.476 199.13 265.392 199.18C283.212 199.294 299.255 199.382 312.743 199.47C326.205 199.571 337.111 199.659 344.667 199.722C348.42 199.76 351.341 199.797 353.344 199.823C354.313 199.835 355.069 199.86 355.598 199.86C356.102 199.873 356.366 199.898 356.366 199.898C356.366 199.898 356.102 199.923 355.598 199.923C355.069 199.923 354.313 199.936 353.344 199.948C351.329 199.948 348.42 199.948 344.667 199.974C337.111 199.974 326.205 199.948 312.743 199.936C299.255 199.898 283.212 199.848 265.392 199.785C256.476 199.747 247.119 199.709 237.422 199.671C236.213 199.671 234.992 199.671 233.77 199.659H231.931H231.012C230.697 199.659 230.307 199.621 229.979 199.47C229.325 199.193 228.796 198.601 228.619 197.909C228.519 197.556 228.544 197.191 228.544 196.901V195.97C228.544 194.723 228.556 193.477 228.569 192.23C228.569 189.724 228.594 187.206 228.594 184.663C228.594 183.391 228.594 182.119 228.607 180.848C228.607 180.52 228.594 180.231 228.645 179.84C228.695 179.475 228.846 179.123 229.06 178.82C229.488 178.216 230.231 177.838 230.974 177.851C272.092 178.078 309.33 178.279 336.305 178.43C343.042 178.48 349.138 178.518 354.502 178.569C355.17 178.569 355.825 178.569 356.48 178.581C357.185 178.581 357.852 178.946 358.243 179.5C358.671 180.042 358.671 180.785 358.646 181.351C358.646 181.943 358.646 182.535 358.633 183.101C358.608 185.393 358.595 187.483 358.583 189.372C358.532 193.124 358.494 196.045 358.482 198.06C358.369 199.105 357.613 199.646 357.16 199.81C356.668 199.986 356.391 199.923 356.391 199.923L356.354 199.911Z" fill="#E0E0E0"/>
<path d="M296.946 186.411L237.708 186.142L237.683 191.695L296.921 191.964L296.946 186.411Z" fill="#E8505B"/>
<path opacity="0.2" d="M296.946 186.411L237.708 186.142L237.683 191.695L296.921 191.964L296.946 186.411Z" fill="white"/>
<path d="M261.178 217.651L228.788 217.504L228.761 223.447L261.151 223.594L261.178 217.651Z" fill="#E8505B"/>
<path opacity="0.1" d="M261.178 217.651L228.788 217.504L228.761 223.447L261.151 223.594L261.178 217.651Z" fill="black"/>
<path d="M355.522 254.129C355.522 254.129 355.786 254.129 356.265 253.99C356.718 253.839 357.461 253.461 357.864 252.567C358.078 252.127 358.104 251.585 358.078 250.968C358.078 250.351 358.078 249.684 358.078 248.966C358.078 247.518 358.078 245.843 358.078 243.98C358.078 242.104 358.078 240.014 358.078 237.735V235.985C358.104 235.38 358.028 234.826 357.713 234.323C357.411 233.831 356.92 233.441 356.34 233.265C355.774 233.089 355.106 233.189 354.439 233.152C349.099 233.152 343.029 233.126 336.304 233.114C309.418 233.013 272.318 232.875 231.339 232.723C230.206 232.698 229.148 233.63 229.034 234.751C228.997 235.947 229.009 237.269 228.997 238.515C228.997 241.046 228.971 243.564 228.959 246.058C228.959 247.304 228.959 248.551 228.946 249.785C228.971 250.402 228.883 251.044 229.022 251.547C229.16 252.064 229.5 252.529 229.941 252.844C230.407 253.159 230.898 253.272 231.503 253.247H233.329C234.55 253.26 235.759 253.272 236.968 253.272C246.627 253.323 255.959 253.373 264.837 253.423C282.594 253.537 298.587 253.625 312.024 253.713C325.436 253.814 336.304 253.902 343.835 253.965C347.575 254.015 350.485 254.04 352.487 254.066C353.457 254.091 354.2 254.103 354.741 254.103C355.245 254.116 355.509 254.141 355.509 254.141C355.509 254.141 355.245 254.166 354.741 254.166C354.212 254.166 353.469 254.179 352.487 254.191C350.485 254.191 347.575 254.191 343.835 254.217C336.304 254.217 325.436 254.191 312.024 254.179C298.587 254.141 282.594 254.091 264.837 254.028C255.959 253.99 246.627 253.952 236.968 253.914C235.759 253.914 234.55 253.914 233.329 253.902H231.503C230.886 253.927 230.13 253.776 229.576 253.386C229.009 252.995 228.581 252.404 228.392 251.736C228.203 251.031 228.317 250.414 228.291 249.81C228.291 248.576 228.291 247.329 228.304 246.083C228.304 243.59 228.329 241.071 228.329 238.541C228.342 237.256 228.329 236.048 228.367 234.7C228.505 233.252 229.853 232.056 231.326 232.094C272.305 232.321 309.405 232.522 336.292 232.673C343.004 232.723 349.074 232.761 354.414 232.812C355.069 232.849 355.736 232.736 356.416 232.95C357.071 233.152 357.625 233.605 357.965 234.171C358.33 234.725 358.406 235.431 358.368 236.01C358.368 236.602 358.368 237.193 358.355 237.76C358.33 240.039 358.318 242.129 358.305 244.005C358.28 245.881 358.267 247.543 358.255 248.991C358.255 249.709 358.242 250.376 358.229 250.993C358.229 251.598 358.204 252.189 357.965 252.643C357.524 253.574 356.743 253.952 356.265 254.078C355.761 254.204 355.497 254.154 355.497 254.154L355.522 254.129Z" fill="#E0E0E0"/>
<path d="M260.934 274.209L228.544 274.062L228.517 280.005L260.907 280.152L260.934 274.209Z" fill="#E8505B"/>
<path opacity="0.1" d="M260.934 274.209L228.544 274.062L228.517 280.005L260.907 280.152L260.934 274.209Z" fill="black"/>
<path d="M355.283 310.688C355.283 310.688 355.547 310.688 356.026 310.55C356.479 310.399 357.222 310.021 357.625 309.127C357.839 308.686 357.864 308.145 357.839 307.528C357.839 306.911 357.839 306.244 357.839 305.526C357.839 304.078 357.839 302.403 357.839 300.54C357.839 298.664 357.839 296.573 357.839 294.294C357.839 293.728 357.839 293.136 357.839 292.544C357.864 291.94 357.789 291.386 357.474 290.882C357.172 290.391 356.681 290.001 356.101 289.825C355.535 289.648 354.867 289.749 354.2 289.711C348.86 289.711 342.79 289.686 336.078 289.673C309.191 289.573 272.091 289.434 231.112 289.283C229.979 289.258 228.921 290.177 228.808 291.31C228.77 292.507 228.783 293.829 228.77 295.075C228.77 297.606 228.745 300.124 228.732 302.617C228.732 303.864 228.732 305.11 228.72 306.344C228.745 306.961 228.657 307.603 228.795 308.107C228.934 308.623 229.274 309.089 229.715 309.404C230.181 309.719 230.672 309.832 231.276 309.807H233.102C234.324 309.819 235.533 309.832 236.742 309.832C246.401 309.882 255.732 309.933 264.611 309.983C282.367 310.096 298.361 310.185 311.798 310.273C325.21 310.373 336.078 310.462 343.609 310.525C347.349 310.575 350.258 310.6 352.26 310.625C353.23 310.638 353.986 310.663 354.515 310.663C355.018 310.676 355.283 310.701 355.283 310.701C355.283 310.701 355.018 310.726 354.515 310.726C353.986 310.726 353.243 310.726 352.26 310.751C350.258 310.751 347.349 310.751 343.609 310.776C336.078 310.776 325.21 310.751 311.798 310.739C298.361 310.701 282.367 310.65 264.611 310.587C255.732 310.55 246.401 310.512 236.742 310.474C235.533 310.474 234.324 310.474 233.102 310.462H231.276C230.659 310.487 229.903 310.336 229.349 309.945C228.783 309.555 228.354 308.963 228.166 308.296C227.977 307.591 228.09 306.974 228.065 306.357C228.065 305.123 228.065 303.876 228.077 302.63C228.077 300.137 228.103 297.619 228.103 295.088C228.115 293.803 228.103 292.595 228.14 291.247C228.279 289.799 229.626 288.603 231.1 288.641C272.079 288.868 309.178 289.069 336.065 289.22C342.778 289.271 348.848 289.308 354.187 289.359C354.842 289.396 355.509 289.283 356.189 289.497C356.844 289.699 357.398 290.152 357.738 290.719C358.104 291.273 358.179 291.978 358.141 292.557C358.141 293.149 358.141 293.74 358.129 294.307C358.104 296.586 358.091 298.676 358.078 300.552C358.053 302.428 358.041 304.09 358.028 305.538C358.028 306.256 358.015 306.923 358.003 307.54C358.003 308.145 357.978 308.737 357.738 309.19C357.298 310.122 356.517 310.499 356.038 310.625C355.535 310.751 355.27 310.701 355.27 310.701L355.283 310.688Z" fill="#E0E0E0"/>
<path d="M296.712 240.627L237.474 240.358L237.448 245.911L296.687 246.18L296.712 240.627Z" fill="#E8505B"/>
<path opacity="0.2" d="M296.712 240.627L237.474 240.358L237.448 245.911L296.687 246.18L296.712 240.627Z" fill="white"/>
<path d="M242.837 300.401C242.837 301.925 241.666 303.159 240.23 303.146C238.794 303.146 237.648 301.9 237.648 300.376C237.648 298.853 238.82 297.619 240.255 297.631C241.691 297.631 242.837 298.878 242.837 300.401Z" fill="#E8505B"/>
<path d="M250.858 300.439C250.858 301.963 249.687 303.197 248.252 303.184C246.816 303.171 245.67 301.937 245.67 300.414C245.67 298.89 246.841 297.656 248.277 297.669C249.712 297.669 250.858 298.916 250.858 300.439Z" fill="#E8505B"/>
<path d="M258.894 300.477C258.894 302 257.722 303.234 256.287 303.222C254.851 303.222 253.705 301.975 253.705 300.452C253.705 298.928 254.876 297.694 256.312 297.707C257.748 297.707 258.894 298.953 258.894 300.477Z" fill="#E8505B"/>
<path d="M266.915 300.515C266.915 302.038 265.744 303.272 264.308 303.259C262.873 303.259 261.727 302.013 261.727 300.489C261.727 298.966 262.898 297.732 264.333 297.744C265.769 297.744 266.915 298.991 266.915 300.515Z" fill="#E8505B"/>
<path d="M274.937 300.552C274.937 302.076 273.766 303.31 272.331 303.297C270.895 303.297 269.749 302.051 269.749 300.527C269.749 299.004 270.92 297.77 272.356 297.782C273.791 297.782 274.937 299.029 274.937 300.552Z" fill="#E8505B"/>
<path d="M282.959 300.59C282.959 302.114 281.788 303.348 280.352 303.335C278.916 303.335 277.771 302.089 277.771 300.565C277.771 299.042 278.942 297.808 280.377 297.82C281.813 297.82 282.959 299.067 282.959 300.59Z" fill="#E8505B"/>
<path d="M290.994 300.628C290.994 302.151 289.823 303.385 288.387 303.373C286.952 303.373 285.806 302.126 285.806 300.603C285.806 299.079 286.977 297.845 288.412 297.858C289.848 297.858 290.994 299.104 290.994 300.628Z" fill="#E8505B"/>
<path d="M299.016 300.666C299.016 302.189 297.844 303.423 296.409 303.411C294.973 303.411 293.827 302.164 293.827 300.64C293.827 299.117 294.998 297.883 296.434 297.896C297.87 297.896 299.016 299.142 299.016 300.666Z" fill="#E8505B"/>
<path d="M307.038 300.704C307.038 302.227 305.867 303.461 304.431 303.448C302.996 303.448 301.85 302.202 301.85 300.678C301.85 299.155 303.021 297.921 304.456 297.933C305.892 297.933 307.038 299.18 307.038 300.704Z" fill="#E8505B"/>
<g opacity="0.2">
<path d="M242.837 300.401C242.837 301.925 241.666 303.159 240.23 303.146C238.794 303.146 237.648 301.9 237.648 300.376C237.648 298.853 238.82 297.619 240.255 297.631C241.691 297.631 242.837 298.878 242.837 300.401Z" fill="white"/>
<path d="M250.858 300.439C250.858 301.963 249.687 303.197 248.252 303.184C246.816 303.171 245.67 301.937 245.67 300.414C245.67 298.89 246.841 297.656 248.277 297.669C249.712 297.669 250.858 298.916 250.858 300.439Z" fill="white"/>
<path d="M258.894 300.477C258.894 302 257.722 303.234 256.287 303.222C254.851 303.222 253.705 301.975 253.705 300.452C253.705 298.928 254.876 297.694 256.312 297.707C257.748 297.707 258.894 298.953 258.894 300.477Z" fill="white"/>
<path d="M266.915 300.515C266.915 302.038 265.744 303.272 264.308 303.259C262.873 303.259 261.727 302.013 261.727 300.489C261.727 298.966 262.898 297.732 264.333 297.744C265.769 297.744 266.915 298.991 266.915 300.515Z" fill="white"/>
<path d="M274.937 300.552C274.937 302.076 273.766 303.31 272.331 303.297C270.895 303.297 269.749 302.051 269.749 300.527C269.749 299.004 270.92 297.77 272.356 297.782C273.791 297.782 274.937 299.029 274.937 300.552Z" fill="white"/>
<path d="M282.959 300.59C282.959 302.114 281.788 303.348 280.352 303.335C278.916 303.335 277.771 302.089 277.771 300.565C277.771 299.042 278.942 297.808 280.377 297.82C281.813 297.82 282.959 299.067 282.959 300.59Z" fill="white"/>
<path d="M290.994 300.628C290.994 302.151 289.823 303.385 288.387 303.373C286.952 303.373 285.806 302.126 285.806 300.603C285.806 299.079 286.977 297.845 288.412 297.858C289.848 297.858 290.994 299.104 290.994 300.628Z" fill="white"/>
<path d="M299.016 300.666C299.016 302.189 297.844 303.423 296.409 303.411C294.973 303.411 293.827 302.164 293.827 300.64C293.827 299.117 294.998 297.883 296.434 297.896C297.87 297.896 299.016 299.142 299.016 300.666Z" fill="white"/>
<path d="M307.038 300.704C307.038 302.227 305.867 303.461 304.431 303.448C302.996 303.448 301.85 302.202 301.85 300.678C301.85 299.155 303.021 297.921 304.456 297.933C305.892 297.933 307.038 299.18 307.038 300.704Z" fill="white"/>
</g>
<path d="M295.641 118.924C297.341 118.219 298.537 116.469 298.55 114.404C298.55 111.709 296.522 109.506 293.991 109.493C291.46 109.493 289.407 111.659 289.394 114.353C289.394 116.431 290.603 118.194 292.316 118.911C285.264 119.969 285.591 127.637 285.591 127.637L302.252 127.713C302.252 127.713 302.63 119.969 295.641 118.911V118.924Z" fill="#E8505B"/>
<path opacity="0.1" d="M295.641 118.924C297.341 118.219 298.537 116.469 298.55 114.404C298.55 111.709 296.522 109.506 293.991 109.493C291.46 109.493 289.407 111.659 289.394 114.353C289.394 116.431 290.603 118.194 292.316 118.911C285.264 119.969 285.591 127.637 285.591 127.637L302.252 127.713C302.252 127.713 302.63 119.969 295.641 118.911V118.924Z" fill="black"/>
<path d="M322.728 132.714L263.301 132.444L263.269 139.545L322.696 139.815L322.728 132.714Z" fill="#E8505B"/>
<path opacity="0.2" d="M322.728 132.714L263.301 132.444L263.269 139.545L322.696 139.815L322.728 132.714Z" fill="white"/>
<path d="M165.564 521.642V510.863L146.258 510.738L146.095 527.005L147.291 527.094C152.618 527.433 174.392 527.937 177.956 526.829C181.935 525.595 165.551 521.629 165.551 521.629L165.564 521.642Z" fill="#E8505B"/>
<path d="M178.421 525.834C178.421 526.011 171.205 526.162 162.289 526.162C153.373 526.162 146.157 526.011 146.157 525.834C146.157 525.658 153.373 525.507 162.289 525.507C171.205 525.507 178.421 525.658 178.421 525.834Z" fill="#263238"/>
<path d="M165.904 523.832C165.74 523.744 165.879 523.178 166.294 522.624C166.71 522.057 167.214 521.767 167.34 521.893C167.466 522.019 167.201 522.498 166.823 523.014C166.445 523.53 166.068 523.921 165.904 523.845V523.832Z" fill="#263238"/>
<path d="M167.138 524.55C166.974 524.487 167.063 523.845 167.44 523.178C167.818 522.498 168.322 522.095 168.46 522.208C168.599 522.322 168.36 522.876 168.007 523.493C167.654 524.122 167.314 524.613 167.138 524.538V524.55Z" fill="#263238"/>
<path d="M151.976 525.784C151.901 525.834 151.611 525.557 151.195 525.079C150.78 524.613 150.226 523.946 149.508 523.379C148.79 522.825 147.997 522.536 147.417 522.473C146.825 522.397 146.448 522.473 146.41 522.385C146.372 522.309 146.737 522.045 147.43 522.007C148.11 521.956 149.08 522.221 149.898 522.863C150.717 523.493 151.233 524.261 151.561 524.802C151.888 525.356 152.039 525.734 151.964 525.784H151.976Z" fill="#263238"/>
<path d="M165.967 521.805C166.067 521.956 165.727 522.334 165.173 522.536C164.619 522.737 164.128 522.674 164.103 522.485C164.078 522.309 164.468 522.095 164.946 521.919C165.425 521.742 165.866 521.654 165.967 521.805Z" fill="#263238"/>
<path d="M165.652 520.773C165.665 520.949 165.161 521.113 164.506 521.113C163.852 521.113 163.335 520.987 163.348 520.798C163.348 520.622 163.877 520.458 164.494 520.458C165.111 520.458 165.64 520.584 165.652 520.773Z" fill="#263238"/>
<path d="M213.104 521.642V510.863L193.798 510.738L193.635 526.842L194.831 526.93C200.158 527.27 221.932 527.937 225.496 526.842C229.475 525.608 213.091 521.642 213.091 521.642H213.104Z" fill="#E8505B"/>
<path d="M225.961 525.86C225.961 526.036 218.745 526.187 209.829 526.187C200.913 526.187 193.697 526.036 193.697 525.86C193.697 525.683 200.913 525.532 209.829 525.532C218.745 525.532 225.961 525.683 225.961 525.86Z" fill="#263238"/>
<path d="M213.444 523.832C213.28 523.744 213.419 523.178 213.834 522.624C214.25 522.057 214.754 521.767 214.88 521.893C215.006 522.019 214.741 522.498 214.363 523.014C213.985 523.53 213.608 523.921 213.444 523.845V523.832Z" fill="#263238"/>
<path d="M214.678 524.55C214.514 524.487 214.603 523.845 214.98 523.178C215.358 522.498 215.862 522.095 216 522.208C216.139 522.322 215.9 522.876 215.547 523.493C215.194 524.122 214.842 524.613 214.678 524.538V524.55Z" fill="#263238"/>
<path d="M199.516 525.784C199.441 525.834 199.151 525.557 198.735 525.079C198.32 524.613 197.766 523.946 197.048 523.379C196.33 522.825 195.537 522.536 194.957 522.473C194.366 522.397 193.988 522.473 193.95 522.385C193.912 522.309 194.277 522.045 194.97 522.007C195.65 521.956 196.62 522.221 197.438 522.863C198.257 523.493 198.773 524.261 199.101 524.802C199.428 525.356 199.579 525.734 199.504 525.784H199.516Z" fill="#263238"/>
<path d="M213.508 521.805C213.596 521.956 213.268 522.334 212.714 522.536C212.16 522.737 211.669 522.674 211.644 522.485C211.619 522.309 212.009 522.095 212.487 521.919C212.966 521.742 213.407 521.654 213.508 521.805Z" fill="#263238"/>
<path d="M213.205 520.773C213.218 520.949 212.714 521.113 212.059 521.113C211.404 521.113 210.888 520.987 210.901 520.798C210.913 520.622 211.43 520.458 212.047 520.458C212.664 520.458 213.193 520.584 213.205 520.773Z" fill="#263238"/>
<path d="M284.231 201.95C283.728 201.434 282.493 201.673 282.493 201.673C282.493 201.673 282.707 200.2 282.493 199.495C282.267 198.778 280.68 198.916 280.68 198.916C280.68 198.916 280.579 198.236 280.718 197.128C280.756 196.851 280.604 196.65 280.353 196.498C279.597 196.045 277.985 196.07 277.985 196.07C277.015 195.378 280.944 189.876 282.405 188.113C283.841 186.375 283.602 184.978 282.304 184.978C281.423 184.978 276.826 190.266 275.429 192.041C274.031 193.817 270.265 198.752 270.139 194.811C270.013 190.87 268.427 187.886 267.444 187.382C266.449 186.879 265.392 188.062 265.933 189.158C266.374 190.039 266.651 191.752 266.815 193.036C266.941 194.094 266.903 195.176 266.664 196.221C266.009 199.168 265.303 201.094 264.963 201.913L264.863 201.862C264.863 201.862 237.371 228.216 235.394 230.092C233.606 231.779 197.891 228.09 190.738 227.334C188.786 227.12 185.89 226.717 183.371 226.831C180.273 226.969 179.719 227.41 176.609 227.448C167.101 227.574 159.167 228.505 153.273 229.5C146.145 230.709 140.289 235.783 138.086 242.67C130.87 265.209 114.523 318.558 111.614 348.525C109.322 352.831 106.753 357.868 105.721 360.701C103.693 366.215 104.184 366.392 104.864 366.518C106.69 366.858 108.793 356.961 109.574 359.353C110.355 361.746 105.607 371.151 107.534 371.428C110.053 371.793 112.055 361.393 112.282 360.524C112.509 359.681 113.78 359.97 113.529 360.738C113.163 361.846 109.625 373.594 112.08 373.972C113.44 374.186 113.592 371.693 113.592 371.693C113.592 371.693 116.098 360.461 117.256 360.675C118.427 360.889 117.181 367.538 116.601 369.754C116.035 371.945 116.841 373.103 118.012 372.549C118.818 372.171 120.745 365.447 121.273 363.244C121.79 361.04 123.125 354.984 124.9 358.497C126.676 362.01 129.371 364.05 130.479 364.1C131.587 364.138 132.053 362.614 131.096 361.846C130.315 361.229 129.346 359.807 128.666 358.699C128.099 357.792 127.683 356.797 127.457 355.752C126.575 351.723 126.575 349.381 126.575 349.381L126.374 348.084C129.195 334.121 137.317 293.136 149.004 266.959L153.815 276.856L155.905 284.184L143.085 315.838L197.753 315.12L189.605 283.718L199.503 250.981C210.22 251.22 237.749 251.623 242.371 249.545C248.139 246.964 277.985 209.354 277.985 209.354C280 207.755 282.053 206.017 283.564 204.519C283.564 204.519 285.339 203.084 284.244 201.95H284.231Z" fill="#FFBE9D"/>
<path d="M140.679 292.532C142.266 287.117 150.414 260.349 150.414 260.349C150.414 260.349 154.419 282.169 153.361 284.801C152.152 287.835 149.923 291.298 149.923 291.298C140.679 305.375 141.888 312.413 141.888 312.413L197.727 310.713C197.866 302.907 193.244 284.75 192.274 281.854C191.305 278.958 194.516 269.465 194.516 269.465C194.516 269.465 200.825 263.056 200.586 259.757C200.095 253.109 199.49 250.968 199.49 250.968L233.467 252.215L232.397 229.16L183.56 224.275C181.872 229.085 166.483 226.73 166.483 226.73C149.872 227.271 148.878 230.331 141.951 235.695C135.025 241.059 123.628 287.092 123.628 287.092L140.679 292.532Z" fill="#E8505B"/>
<path d="M173.699 287.092C173.699 287.18 172.578 287.256 170.752 287.243C168.939 287.243 166.42 287.117 163.662 286.84C160.904 286.563 158.411 286.173 156.635 285.82C154.847 285.468 153.764 285.178 153.776 285.09C153.789 285.002 154.91 285.128 156.711 285.367C158.512 285.594 160.98 285.909 163.725 286.186C166.471 286.463 168.964 286.651 170.765 286.777C172.566 286.903 173.687 286.991 173.687 287.092H173.699Z" fill="#263238"/>
<path d="M177.528 282.345C177.553 282.421 176.394 282.862 174.48 283.39C172.566 283.907 169.871 284.486 166.849 284.851C163.826 285.203 161.068 285.279 159.091 285.229C157.101 285.178 155.88 285.015 155.88 284.926C155.88 284.826 157.114 284.826 159.091 284.763C161.068 284.7 163.788 284.561 166.773 284.196C169.758 283.844 172.44 283.34 174.379 282.937C176.319 282.534 177.503 282.257 177.54 282.345H177.528Z" fill="#263238"/>
<path d="M196.304 261.167C196.392 261.18 196.254 262.275 195.926 264.013C195.599 265.75 195.095 268.143 194.453 270.774C193.811 273.406 193.156 275.76 192.64 277.447C192.123 279.147 191.745 280.167 191.657 280.155C191.569 280.129 191.783 279.059 192.186 277.334C192.665 275.37 193.206 273.116 193.811 270.623C194.428 268.13 194.982 265.889 195.473 263.924C195.914 262.212 196.216 261.154 196.304 261.18V261.167Z" fill="#263238"/>
<path d="M141.271 289.333C141.22 289.51 137.367 288.616 132.67 287.331C127.96 286.047 124.194 284.863 124.245 284.687C124.295 284.511 128.149 285.417 132.846 286.689C137.543 287.974 141.321 289.157 141.271 289.333Z" fill="#263238"/>
<path d="M200.095 250.678C200.095 250.678 199.579 250.767 198.647 250.678C197.727 250.578 196.367 250.364 194.806 249.759C193.244 249.168 191.456 248.198 189.794 246.712C188.131 245.239 186.645 243.199 185.701 240.807C184.744 238.415 184.416 235.922 184.567 233.706C184.719 231.489 185.298 229.487 186.293 228.09C187.275 226.667 188.572 225.987 189.479 225.748C189.932 225.622 190.31 225.597 190.549 225.609C190.801 225.609 190.927 225.647 190.927 225.66C190.927 225.723 190.411 225.697 189.554 225.987C188.723 226.289 187.539 226.994 186.671 228.354C184.958 231.049 184.479 235.972 186.305 240.568C187.225 242.872 188.623 244.824 190.197 246.259C191.771 247.707 193.471 248.702 194.97 249.331C197.992 250.59 200.108 250.54 200.082 250.691L200.095 250.678Z" fill="#263238"/>
<path d="M229.45 251.761C229.273 251.761 229.135 246.561 229.147 240.165C229.147 233.756 229.311 228.556 229.5 228.556C229.676 228.556 229.815 233.756 229.802 240.165C229.79 246.574 229.638 251.761 229.45 251.761Z" fill="#263238"/>
<path d="M183.258 225.698C183.397 222.89 183.686 219.717 183.686 219.717C183.686 219.717 190.638 218.949 191.053 211.772C191.469 204.595 191.053 188.037 191.053 188.037L178.397 181.591L164.469 192.57L166.584 228.455L179.392 229.274C181.407 229.399 183.145 227.788 183.245 225.685L183.258 225.698Z" fill="#FFBE9D"/>
<path d="M184.505 206.08C184.505 206.08 184.53 206.219 184.391 206.395C184.265 206.559 183.988 206.76 183.598 206.748C182.792 206.71 182.011 205.816 181.734 204.733C181.596 204.179 181.596 203.625 181.696 203.134C181.785 202.656 182.062 202.177 182.452 202.051C182.641 201.976 182.842 201.988 182.981 202.051C183.132 202.127 183.22 202.24 183.271 202.341C183.359 202.555 183.296 202.681 183.271 202.668C183.245 202.668 183.245 202.555 183.145 202.416C183.044 202.278 182.805 202.152 182.553 202.291C182.288 202.416 182.099 202.756 182.036 203.185C181.961 203.613 181.961 204.116 182.099 204.607C182.351 205.577 183.031 206.383 183.623 206.458C183.925 206.496 184.165 206.383 184.303 206.269C184.442 206.156 184.492 206.055 184.517 206.068L184.505 206.08Z" fill="#EB996E"/>
<path d="M195.373 184.159C194.403 180.86 190.89 179.211 187.691 178.304C182.817 176.919 177.541 176.315 172.793 178.065C168.033 179.815 162.315 182.9 162.315 188.151C159.507 187.924 157.908 190.379 156.787 193.426C156.132 195.227 155.691 197.229 155.591 199.218H155.54C155.175 206.08 153.261 215.562 148.803 220.648C146.334 223.456 142.796 225.395 141.36 228.896C140.113 231.943 140.756 235.531 139.584 238.604C138.539 241.311 136.235 243.237 134.585 245.592C130.983 250.729 130.744 257.981 133.388 263.71C136.033 269.439 141.272 273.632 147.09 275.559C152.908 277.485 159.255 277.271 165.174 275.722C169.544 274.589 173.801 272.701 177.289 269.716C180.777 266.745 183.447 262.602 184.24 257.981C185.122 252.832 183.686 247.619 182.628 242.507C179.279 226.34 180.236 225.509 184.467 210.513C184.568 210.248 184.618 209.971 184.694 209.707C184.744 209.505 184.807 209.316 184.857 209.115C184.971 208.523 185.059 207.931 185.059 207.314C183.837 207.793 182.351 207.478 181.419 206.521C180.475 205.577 180.135 204.041 180.563 202.756C181.054 201.271 182.414 200.288 183.812 199.697C185.21 199.105 186.709 198.815 188.081 198.161C190.99 196.776 193.005 193.905 194.378 190.895C195.335 188.793 196.053 186.375 195.398 184.147L195.373 184.159Z" fill="#263238"/>
<path d="M185.008 206.395C185.008 206.395 185.298 206.849 185.676 207.642C186.054 208.435 186.557 209.556 187.111 210.853L187.212 211.092L186.948 211.117C186.532 211.155 186.104 211.193 185.663 211.23C184.782 211.293 184.051 211.394 183.195 211.381C183.056 211.356 182.905 211.23 182.868 211.092C182.817 210.953 182.83 210.84 182.842 210.739C182.88 210.538 182.918 210.399 182.956 210.223L183.182 209.329C183.459 208.246 183.661 207.579 183.711 207.591C183.762 207.591 183.661 208.297 183.447 209.392L183.27 210.299C183.208 210.601 183.094 211.054 183.27 211.029C183.9 211.004 184.794 210.903 185.625 210.84C186.066 210.802 186.482 210.777 186.91 210.739L186.746 211.004C186.205 209.707 185.751 208.561 185.437 207.743C185.122 206.924 184.958 206.42 185.008 206.395Z" fill="#E8505B"/>
<path d="M141.889 312.413L197.728 310.713L222.008 405.576L217.537 514.389H187.981L191.645 407.892L170.048 341.851L173.372 518.607L143.539 519.048L140.391 352.907C140.265 348.286 138.741 337.873 139.307 333.289L141.889 312.413Z" fill="#263238"/>
<path d="M177.491 343.186C177.491 343.274 176.433 343.224 174.758 343.022C173.083 342.821 170.766 342.468 168.235 341.965C165.703 341.448 163.437 340.882 161.812 340.416C160.188 339.95 159.205 339.598 159.218 339.509C159.268 339.333 163.323 340.315 168.361 341.323C173.398 342.342 177.516 342.997 177.491 343.186Z" fill="#455A64"/>
<path d="M217.273 508.408C217.273 508.584 210.586 508.735 202.324 508.735C194.063 508.735 187.376 508.584 187.376 508.408C187.376 508.232 194.063 508.081 202.324 508.081C210.586 508.081 217.273 508.232 217.273 508.408Z" fill="#455A64"/>
<path d="M173.121 514.011C173.121 514.187 166.635 514.339 158.626 514.339C150.616 514.339 144.131 514.187 144.131 514.011C144.131 513.835 150.616 513.684 158.626 513.684C166.635 513.684 173.121 513.835 173.121 514.011Z" fill="#455A64"/>
<path d="M169.267 513.558C169.09 513.558 168.297 474.941 167.516 427.308C166.735 379.663 166.244 341.033 166.421 341.033C166.597 341.033 167.39 379.65 168.171 427.295C168.952 474.928 169.443 513.558 169.267 513.558Z" fill="#455A64"/>
<path d="M213.306 508.408C213.306 508.408 213.294 508.232 213.294 507.892C213.294 507.527 213.306 507.023 213.319 506.381C213.357 505.021 213.42 503.069 213.483 500.589C213.659 495.515 213.911 488.25 214.226 479.272C214.918 461.241 215.863 436.399 216.921 408.95C216.921 408.698 216.946 408.446 216.946 408.207V408.295C210.334 381.803 204.352 357.855 200.02 340.492C197.892 331.841 196.167 324.841 194.97 319.955C194.391 317.55 193.95 315.674 193.635 314.365C193.497 313.748 193.384 313.269 193.308 312.904C193.232 312.577 193.207 312.401 193.22 312.401C193.22 312.401 193.283 312.564 193.371 312.892C193.472 313.244 193.598 313.723 193.761 314.327C194.101 315.637 194.593 317.5 195.222 319.892C196.469 324.765 198.27 331.753 200.474 340.378C204.856 357.729 210.901 381.665 217.601 408.144V408.195V408.245C217.601 408.472 217.575 408.736 217.575 408.988C216.455 436.424 215.435 461.279 214.692 479.297C214.289 488.262 213.974 495.54 213.747 500.602C213.621 503.095 213.52 505.034 213.457 506.393C213.42 507.036 213.382 507.527 213.369 507.904C213.344 508.244 213.331 508.421 213.319 508.421L213.306 508.408Z" fill="#455A64"/>
<path d="M203.672 406.004C203.697 406.18 200.775 406.835 197.148 407.452C194.428 407.918 192.086 408.232 191.066 408.295V408.044C191.406 408.132 191.582 408.207 191.582 408.258C191.582 408.308 191.381 408.321 191.028 408.308L190.26 408.27L191.015 408.044C191.998 407.754 194.315 407.276 197.035 406.81C200.674 406.18 203.646 405.828 203.672 406.004Z" fill="#455A64"/>
<path d="M203.105 409.617C203.08 409.794 200.461 409.592 197.224 409.353C193.988 409.101 191.368 408.887 191.381 408.711C191.381 408.535 194.026 408.446 197.287 408.711C200.536 408.963 203.143 409.454 203.118 409.63L203.105 409.617Z" fill="#455A64"/>
<path opacity="0.2" d="M141.649 314.415C142.997 316.316 144.924 316.984 147.165 317.349C149.407 317.714 151.686 317.475 153.941 317.223C168.36 315.624 183.623 314.151 197.74 310.713C179.467 311.733 160.174 311.393 141.901 312.413C141.901 312.413 141.75 313.672 141.712 313.974" fill="black"/>
<g opacity="0.2">
<path d="M160.477 340.164L170.778 380.116L170.06 341.852L160.477 340.164Z" fill="black"/>
</g>
</g>
<defs>
<clipPath id="clip0_102_147">
<rect width="538" height="528" fill="white"/>
</clipPath>
</defs>
</svg>
