<svg width="712" height="600" viewBox="0 0 712 600" fill="none" xmlns="http://www.w3.org/2000/svg">
<path d="M390.052 296.374L711.094 296.374V0.39505L390.052 0.39505L390.052 296.374Z" fill="#E6E6E6"/>
<path d="M376.515 296.374L704.764 296.374V0.39505L376.515 0.39505L376.515 296.374Z" fill="#F0F0F0"/>
<path d="M390.052 306.38L711.094 306.38V296.354L390.052 296.354V306.38Z" fill="#E6E6E6"/>
<path d="M353.997 306.38L682.246 306.38V296.354L353.997 296.354V306.38Z" fill="#F0F0F0"/>
<path d="M685.83 276.862V19.8657L395.428 19.8657V276.862H685.83Z" fill="#FAFAFA"/>
<path d="M627.491 276.862L516.406 19.8657H402.73L513.815 276.862H627.491Z" fill="white"/>
<path d="M677.084 233.929C677.824 233.929 678.428 233.307 678.428 232.545V32.5392C678.428 31.7772 677.824 31.1555 677.084 31.1555C676.344 31.1555 675.74 31.7772 675.74 32.5392V232.525C675.74 233.287 676.344 233.909 677.084 233.909V233.929Z" fill="#F0F0F0"/>
<path d="M471.082 276.862L359.997 19.8657H320.67L431.755 276.862H471.082Z" fill="white"/>
<path d="M397.844 276.862V19.8657H395.448V276.862H397.844Z" fill="#E6E6E6"/>
<g opacity="0.5">
<path d="M372.033 46.636H693.095L694.828 27.4456H373.786L372.033 46.636Z" fill="#E6E6E6"/>
<path d="M372.033 78.3194H693.095L694.828 59.1289H373.786L372.033 78.3194Z" fill="#E6E6E6"/>
<path d="M372.033 110.003H693.095L694.828 90.8125H373.786L372.033 110.003Z" fill="#E6E6E6"/>
<path d="M372.033 141.686H693.095L694.828 122.496H373.786L372.033 141.686Z" fill="#E6E6E6"/>
<path d="M372.033 173.369H693.095L694.828 154.179H373.786L372.033 173.369Z" fill="#E6E6E6"/>
<path d="M372.033 205.053H693.095L694.828 185.862H373.786L372.033 205.053Z" fill="#E6E6E6"/>
</g>
<path d="M0.366913 599.812H256.195L256.195 0.39447H0.366913L0.366913 599.812Z" fill="#F0F0F0"/>
<path d="M0.36882 599.812H251.152L251.152 0.39447H0.36882L0.36882 599.812Z" fill="#F5F5F5"/>
<path d="M237.965 599.812L237.965 13.9905L13.5939 13.9905L13.5939 599.812H237.965Z" fill="#EBEBEB"/>
<path d="M74.4827 282.216C61.7633 278.606 49.044 290.237 36.3246 286.627C33.6366 285.886 31.4355 282.156 31.4355 279.368C31.4355 276.601 33.6366 275.799 36.3246 276.541C49.044 280.15 61.7633 268.52 74.4827 272.129C77.1707 272.871 79.3717 276.621 79.3717 279.388C79.3717 282.156 77.1707 282.958 74.4827 282.216Z" fill="white"/>
<path d="M17.002 599.812L17.002 13.9905H13.5738L13.5738 599.812H17.002Z" fill="#E0E0E0"/>
<path d="M658.017 586.577H703.908V381.718H658.017V586.577Z" fill="#F0F0F0"/>
<path d="M468.826 599.551H695.105V586.577H468.826V599.551Z" fill="#F0F0F0"/>
<path d="M658.036 381.718H460.02V586.577H658.036V381.718Z" fill="#F5F5F5"/>
<path d="M639.978 406.944H478.055V474.121H639.978V406.944Z" fill="#F0F0F0"/>
<path d="M639.978 494.174H478.055V561.35H639.978V494.174Z" fill="#F0F0F0"/>
<path d="M540.855 412.599H577.202C579.676 412.599 581.682 410.538 581.682 407.997C581.682 405.455 579.676 403.395 577.202 403.395H540.855C538.381 403.395 536.375 405.455 536.375 407.997C536.375 410.538 538.381 412.599 540.855 412.599Z" fill="#F5F5F5"/>
<path d="M540.835 499.849H577.202C579.656 499.849 581.682 497.783 581.682 495.236C581.682 492.71 579.675 490.624 577.202 490.624H540.835C538.381 490.624 536.355 492.69 536.355 495.236C536.355 497.763 538.362 499.849 540.835 499.849Z" fill="#F5F5F5"/>
<path d="M615.358 377.687C613.488 377.687 611.969 376.123 611.969 374.198V267.758C611.969 265.833 613.488 264.269 615.358 264.269C617.228 264.269 618.747 265.833 618.747 267.758V374.198C618.747 376.123 617.228 377.687 615.358 377.687Z" fill="#EBEBEB"/>
<path d="M647.188 373.556H583.514V381.818H647.188V373.556Z" fill="#F0F0F0"/>
<path d="M632.988 327.996C632.053 327.996 631.293 327.214 631.293 326.252V273.032C631.293 272.069 632.053 271.287 632.988 271.287C633.923 271.287 634.682 272.069 634.682 273.032V326.252C634.682 327.214 633.923 327.996 632.988 327.996Z" fill="#E0E0E0"/>
<path d="M565.846 291.42C565.846 291.42 567.112 252.297 615.34 252.297C663.568 252.297 664.835 291.42 664.835 291.42H565.826H565.846Z" fill="#E6E6E6"/>
</svg>
