<svg width="276" height="435" viewBox="0 0 276 435" fill="none" xmlns="http://www.w3.org/2000/svg">
<path opacity="0.9" d="M256.953 78.4004L51.5926 58.1471C41.0938 57.1043 31.7052 65.1054 30.6924 75.8938L1.24113 392.246C0.228259 403.055 8.00012 412.72 18.4795 413.763L223.84 434.016C234.338 435.059 243.727 427.058 244.74 416.269L274.191 99.917C275.204 89.1085 267.432 79.4431 256.953 78.4004ZM212.99 199.579C209.27 239.544 174.774 268.861 135.953 265.031C109.658 262.445 88.134 245.32 78.1221 222.139C73.3499 211.089 71.1878 198.637 72.376 185.723C76.0964 145.738 110.593 116.44 149.413 120.271C155.743 120.892 161.782 122.356 167.45 124.542C173.04 126.687 178.28 129.535 183.052 132.984C198.401 144.013 209.153 161.098 212.328 180.549C213.341 186.685 213.574 193.082 212.971 199.579H212.99Z" fill="white"/>
<path d="M153.154 0.956286L175.398 5.28768C180.93 6.37053 184.981 12.0054 184.358 17.8407L180.053 58.1869C179.995 58.7283 179.917 59.2497 179.761 59.751C178.495 64.684 173.859 67.7921 168.834 66.8296L146.589 62.4982C141.564 61.5156 137.766 56.7832 137.59 51.5494C137.551 51.028 137.59 50.4866 137.629 49.9452L141.934 9.59903C142.557 3.76367 147.602 -0.10651 153.154 0.976339V0.956286ZM162.464 20.227C158.043 19.3647 154.05 22.4328 153.543 27.065C153.037 31.7172 156.251 36.189 160.672 37.0513C165.094 37.9135 169.087 34.8455 169.593 30.1932C170.08 25.561 166.886 21.0893 162.464 20.227Z" fill="#263238"/>
<path d="M221.698 86.4212C220.802 86.4212 219.945 85.9198 219.536 85.0375L210.946 66.7494C209.758 64.2428 207.362 62.5183 204.655 62.2375L105.88 52.4919C103.172 52.2312 100.504 53.4544 98.8872 55.6803L87.0833 71.9431C86.2847 73.0259 84.7849 73.2665 83.733 72.4444C82.6812 71.6222 82.4475 70.0782 83.2461 68.9953L95.05 52.7325C97.66 49.123 102.004 47.1579 106.347 47.579L205.122 57.3246C209.466 57.7457 213.361 60.533 215.251 64.5837L223.841 82.8718C224.425 84.095 223.919 85.5789 222.73 86.1605C222.399 86.3209 222.029 86.4011 221.698 86.4011V86.4212Z" fill="black"/>
<path d="M19.3746 142.789L17.7773 142.629L18.8681 130.838L20.4653 130.998L19.3746 142.789ZM21.4977 120.009L19.9005 119.849L22.3742 93.1787L23.9714 93.3391L21.4977 120.009Z" fill="#FF4343"/>
<path d="M225.691 434.958C225.048 434.958 224.405 434.918 223.763 434.858L18.4025 414.605C13.1239 414.083 8.33219 411.456 4.92348 407.205C1.51477 402.954 -0.0824492 397.62 0.423987 392.186L29.8752 75.8334C30.3817 70.3991 32.9333 65.4661 37.0627 61.9569C41.1921 58.4476 46.3734 56.8234 51.652 57.3247L257.012 77.578C262.291 78.0993 267.082 80.7262 270.491 84.9774C273.9 89.2286 275.497 94.5626 274.991 99.9969L245.539 416.349C245.033 421.784 242.481 426.717 238.352 430.226C234.729 433.294 230.288 434.938 225.691 434.938V434.958ZM49.7431 58.8888C45.4968 58.8888 41.4259 60.3927 38.0951 63.2402C34.2968 66.4687 31.9594 71.0006 31.4919 75.9938L2.04069 392.346C1.57321 397.359 3.03408 402.252 6.17009 406.162C9.3061 410.073 13.7082 412.479 18.5583 412.96L223.918 433.214C228.788 433.715 233.541 432.191 237.339 428.962C241.137 425.734 243.475 421.202 243.942 416.209L273.393 99.8566C273.861 94.8434 272.4 89.9505 269.264 86.0402C266.128 82.1299 261.726 79.7236 256.876 79.2423L51.5156 58.989C50.9313 58.9289 50.3275 58.9088 49.7431 58.9088V58.8888ZM142.83 266.194C140.532 266.194 138.214 266.074 135.896 265.853C110.301 263.327 87.8817 246.703 77.4218 222.479C72.4549 210.969 70.4486 198.235 71.6173 185.642C75.3766 145.276 110.34 115.598 149.531 119.468C155.822 120.09 161.958 121.554 167.762 123.8C173.333 125.925 178.631 128.793 183.54 132.342C199.2 143.592 209.991 161.118 213.147 180.429C214.179 186.725 214.413 193.202 213.809 199.679C211.998 219.231 202.882 236.877 188.176 249.37C175.261 260.339 159.387 266.194 142.85 266.194H142.83ZM142.655 120.772C107.126 120.772 76.6622 148.665 73.195 185.803C72.0458 198.115 74.0131 210.568 78.8632 221.817C89.1088 245.5 111.002 261.763 136.032 264.229C154.595 266.074 172.749 260.339 187.143 248.107C201.538 235.894 210.439 218.629 212.212 199.519C212.796 193.182 212.582 186.845 211.569 180.689C208.492 161.8 197.934 144.674 182.624 133.666C177.813 130.196 172.632 127.389 167.197 125.324C161.529 123.118 155.53 121.714 149.375 121.092C147.115 120.872 144.875 120.752 142.655 120.752V120.772Z" fill="black"/>
<path opacity="0.8" d="M167.448 124.542C161.78 122.356 155.742 120.892 149.411 120.27C110.572 116.44 76.095 145.737 72.3746 185.723C71.1669 198.637 73.329 211.089 78.1207 222.138L11.8359 278.447L30.691 75.9137C31.7038 65.1053 41.0924 57.1243 51.5912 58.167L119.629 64.8847L141.425 92.0763L167.468 124.562L167.448 124.542Z" fill="#FF4343"/>
<path opacity="0.5" d="M274.19 99.9165L261.023 241.288L212.327 180.529C209.152 161.077 198.4 143.992 183.051 132.963L248.303 77.5376L256.932 78.3798C267.431 79.4226 275.183 89.108 274.17 99.8964L274.19 99.9165Z" fill="#FF4343"/>
<path d="M248.303 77.5581L183.05 132.984C178.278 129.535 173.038 126.687 167.448 124.542L141.406 92.0563L119.609 64.8647L248.303 77.5581Z" fill="#FF4343"/>
<path opacity="0.5" d="M194.595 296.036L72.7112 284.02C70.6659 283.818 68.849 285.362 68.6532 287.468L68.0442 294.015C67.8483 296.121 69.3476 297.991 71.3929 298.193L193.276 310.209C195.322 310.41 197.138 308.867 197.334 306.761L197.943 300.214C198.139 298.108 196.64 296.238 194.595 296.036Z" fill="#FF4343"/>
<path opacity="0.5" d="M182.681 320.614L79.8772 310.479C77.8319 310.278 76.0151 311.821 75.8192 313.927L75.2102 320.474C75.0143 322.58 76.5136 324.45 78.5589 324.652L181.363 334.787C183.408 334.988 185.225 333.445 185.421 331.339L186.03 324.792C186.226 322.686 184.726 320.816 182.681 320.614Z" fill="#FF4343"/>
<path opacity="0.5" d="M63.2671 374.151L32.709 371.139L32.2299 376.289L62.788 379.302L63.2671 374.151Z" fill="#FF4343"/>
<path opacity="0.5" d="M94.7926 377.249L70.1484 374.82L69.6694 379.97L94.3136 382.399L94.7926 377.249Z" fill="#FF4343"/>
<path opacity="0.5" d="M102.463 389.716L31.6328 382.733L31.1538 387.883L101.984 394.866L102.463 389.716Z" fill="#FF4343"/>
<path opacity="0.5" d="M116.858 367.734L33.7734 359.543L33.2944 364.693L116.379 372.884L116.858 367.734Z" fill="#FF4343"/>
<path d="M173.294 4.40539L150.757 0.174262C145.148 -0.888534 139.713 3.02175 138.7 8.85711L131.669 49.2634C131.571 49.8048 131.513 50.3463 131.513 50.8676C131.357 56.1014 134.941 60.8339 140.025 61.7763L162.561 66.0075C167.645 66.97 172.593 63.8217 174.229 58.8887C174.404 58.4075 174.54 57.8661 174.638 57.3246L181.669 16.9183C182.682 11.083 178.903 5.44814 173.294 4.40539ZM159.036 19.4249C163.516 20.2671 166.496 24.7188 165.697 29.3711C164.879 34.0434 160.574 37.1114 156.114 36.2692C151.634 35.427 148.654 30.9753 149.452 26.303C150.27 21.6508 154.556 18.5626 159.036 19.4049V19.4249Z" fill="#263238"/>
<path opacity="0.2" d="M173.294 4.40539L150.757 0.174262C145.148 -0.888534 139.713 3.02175 138.7 8.85711L131.669 49.2634C131.571 49.8048 131.513 50.3463 131.513 50.8676C131.357 56.1014 134.941 60.8339 140.025 61.7763L162.561 66.0075C167.645 66.97 172.593 63.8217 174.229 58.8887C174.404 58.4075 174.54 57.8661 174.638 57.3246L181.669 16.9183C182.682 11.083 178.903 5.44814 173.294 4.40539ZM159.036 19.4249C163.516 20.2671 166.496 24.7188 165.697 29.3711C164.879 34.0434 160.574 37.1114 156.114 36.2692C151.634 35.427 148.654 30.9753 149.452 26.303C150.27 21.6508 154.556 18.5626 159.036 19.4049V19.4249Z" fill="white"/>
<path opacity="0.2" d="M215.349 401.826C221.231 396.828 222.065 387.867 217.21 381.811C212.356 375.755 203.652 374.897 197.769 379.894C191.886 384.892 191.053 393.853 195.907 399.909C200.762 405.965 209.466 406.823 215.349 401.826Z" fill="#FF4343"/>
<path opacity="0.8" d="M178.78 398.213C184.663 393.216 185.497 384.255 180.642 378.198C175.787 372.142 167.083 371.284 161.2 376.282C155.318 381.279 154.484 390.24 159.339 396.297C164.193 402.353 172.898 403.211 178.78 398.213Z" fill="#FF4343"/>
</svg>
