<svg width="334" height="558" viewBox="0 0 334 558" fill="none" xmlns="http://www.w3.org/2000/svg">
<path d="M126.839 11.8543C126.936 7.62315 130.754 2.04848 146.044 1.04584C161.354 0.0432037 167.042 0.765104 173.353 13.0775C180.17 26.3324 187.961 41.1514 182.878 54.7471C177.794 68.3429 161.783 76.3038 150.31 83.4827C138.837 90.6616 121.735 114.785 121.735 114.785C121.735 114.785 89.8297 23.7656 126.819 11.8543H126.839Z" fill="#263238"/>
<path d="M133.832 193.472C133.832 193.472 157.031 316.095 165.27 365.926C173.821 417.762 181.047 529.296 181.047 529.296H193.942C193.942 529.296 210.362 433.163 193.923 361.554C195.033 304.484 184.261 185.792 184.261 185.792L133.871 193.472H133.832Z" fill="#FF8B7B"/>
<path d="M150.738 190.905C150.738 190.905 201.635 319.122 219.341 366.267C244.176 400.557 306.662 473.288 310.09 474.752L314.609 464.264C314.609 464.264 276.432 387.402 245.656 349.422C237.475 292.974 198.519 183.626 198.519 183.626L150.738 190.905Z" fill="#FF8B7B"/>
<path d="M126.782 113.723C123.12 118.134 119.361 122.365 115.601 126.636C111.822 130.888 107.966 135.059 104.09 139.23C100.233 143.421 96.2982 147.531 92.2467 151.582C88.2147 155.633 84.1242 159.663 79.8585 163.594L80.5013 162.892C79.5079 164.075 78.4171 164.977 77.3458 165.679C76.3134 166.321 75.2616 166.842 74.3072 167.183C72.3788 167.905 70.6647 168.226 69.048 168.426C65.8146 168.787 62.9513 168.687 60.1659 168.467C54.6146 168.005 49.4333 166.902 44.3495 165.679C39.2851 164.376 34.3181 162.872 29.4291 161.268C24.54 159.563 19.7484 157.819 14.9567 155.753C12.8725 154.851 11.8986 152.384 12.7751 150.239C13.5543 148.354 15.5021 147.331 17.3915 147.752H17.4694C22.2805 148.815 27.2086 149.878 32.0781 150.76C36.9477 151.722 41.8173 152.545 46.6674 153.166C51.4786 153.828 56.3092 154.289 60.8282 154.309C63.0682 154.309 65.2692 154.189 67.0223 153.808C67.8988 153.628 68.6584 153.387 69.087 153.186C69.3402 153.086 69.3986 152.986 69.4376 152.966C69.4376 152.946 69.3012 153.006 69.1259 153.206L69.7687 152.505C73.5865 148.594 77.3653 144.504 81.1051 140.373L92.2857 127.84L114.51 102.533C117.569 99.064 122.769 98.7832 126.139 101.932C129.45 105.02 129.762 110.233 126.879 113.723H126.86H126.782Z" fill="#FF8B7B"/>
<path d="M20.6249 148.835L12.4829 134.337L6.93164 150.198C6.93164 150.198 13.749 158.199 20.2743 156.615L20.6249 148.835Z" fill="#FF8B7B"/>
<path d="M2.37328 134.778L0.405974 141.536C-0.0420275 143.08 0.444919 144.744 1.67205 145.767L6.95069 150.198L12.502 134.337L7.57399 132.231C5.45085 131.329 3.05504 132.512 2.39277 134.758L2.37328 134.778Z" fill="#FF8B7B"/>
<path d="M126.936 93.4893C115.483 91.5642 110.399 99.7056 104.945 105.902C106.25 116.851 125.008 139.31 125.008 139.31C125.008 139.31 147.759 96.9785 126.936 93.4692V93.4893Z" fill="#FF438B"/>
<path d="M111.705 106.944C113.166 118.876 118.698 152.344 134.183 202.476L201.792 192.169C197.118 166.922 190.67 143.099 193.65 92.8673C194.001 87.0119 189.463 82.0789 183.775 82.0989C179.198 82.0989 173.549 82.2995 167.666 82.9011C156.7 84.024 147.74 85.0267 138.293 87.3728C132.06 88.9369 125.457 91.0224 120.431 92.7069C114.568 94.672 110.926 100.648 111.686 106.924L111.705 106.944Z" fill="#FF438B"/>
<path d="M138.312 87.3929L167.685 82.9211C167.685 82.9211 166.341 94.5317 147.836 109.792C133.773 96.3565 138.312 87.3929 138.312 87.3929Z" fill="white"/>
<path d="M159.875 49.3125C159.427 59.3188 160.128 77.4265 167.686 82.9209C167.686 82.9209 161.803 93.9901 148.733 102.312C138.468 97.6998 138.312 87.3927 138.312 87.3927C148.48 83.2017 147.058 75.1806 144.137 67.9014L159.894 49.3125H159.875Z" fill="#FF8B7B"/>
<path opacity="0.2" d="M153.467 56.9128L144.137 67.9018C144.838 69.6263 145.442 71.3909 145.812 73.1355C149.746 71.9324 154.636 66.5382 154.441 62.1266C154.343 59.9208 153.954 57.8553 153.467 56.9128Z" fill="black"/>
<path d="M167.296 29.9615C165.855 46.3446 165.601 53.3029 157.323 61.5045C144.857 73.8169 125.632 68.4227 122.282 51.9393C119.262 37.1003 122.106 12.7963 137.903 6.72036C153.447 0.744637 168.737 13.5984 167.316 29.9615H167.296Z" fill="#FF8B7B"/>
<path d="M155.083 17.208C153.681 27.0138 159.31 39.0054 164.18 39.1457C169.049 39.2661 172.731 20.3362 172.731 20.3362L155.083 17.208Z" fill="#263238"/>
<path d="M128.029 12.1953C138.411 19.7753 169.265 31.1252 169.908 21.3394C170.55 11.5336 157.675 3.63281 148.15 3.63281C138.626 3.63281 130.951 7.52305 128.029 12.2154V12.1953Z" fill="#263238"/>
<path opacity="0.2" d="M162.758 351.147L193.826 338.534C193.67 330.894 193.417 322.792 193.047 314.41L158.551 327.344C160.09 335.847 161.492 343.908 162.739 351.147H162.758Z" fill="black"/>
<path opacity="0.2" d="M234.594 298.809L198.559 312.325C201.402 319.584 204.149 326.642 206.72 333.3L239.872 319.844C238.294 313.047 236.502 305.988 234.613 298.809H234.594Z" fill="black"/>
<path d="M143.96 34.2732C143.921 35.6168 143.201 36.6796 142.363 36.6395C141.506 36.6194 140.863 35.5165 140.902 34.173C140.941 32.8295 141.662 31.7667 142.499 31.8068C143.337 31.8469 143.999 32.9297 143.96 34.2732Z" fill="#263238"/>
<path d="M129.294 33.8321C129.255 35.1756 128.534 36.2384 127.697 36.1983C126.84 36.1783 126.197 35.0754 126.236 33.7318C126.275 32.3883 126.996 31.3255 127.833 31.3656C128.69 31.3857 129.333 32.4885 129.294 33.8321Z" fill="#263238"/>
<path d="M128.203 31.4656L125.105 30.4429C125.105 30.4429 126.644 32.9896 128.203 31.4656Z" fill="#263238"/>
<path d="M133.112 36.2583C133.112 36.2583 130.755 41.9533 128.242 44.6604C129.917 46.3649 132.839 45.6831 132.839 45.6831L133.092 36.2583H133.112Z" fill="#FF5652"/>
<path d="M137.456 50.6566C136.774 50.7568 136.054 50.817 135.274 50.7769C135.06 50.7769 134.904 50.5964 134.904 50.3758C134.904 50.1552 135.08 49.9948 135.294 49.9948C140.982 50.1553 143.767 46.1447 143.786 46.1046C143.903 45.9241 144.137 45.884 144.312 46.0043C144.488 46.1246 144.527 46.3653 144.41 46.5458C144.312 46.7062 142.072 49.9347 137.436 50.6566H137.456Z" fill="#263238"/>
<path d="M170.724 38.6445C169.945 41.9532 167.744 44.5801 165.387 46.0039C161.861 48.1295 159.057 45.1416 159.173 41.1511C159.271 37.5617 161.238 32.1274 165.212 31.6261C169.127 31.1247 171.64 34.8746 170.744 38.6646L170.724 38.6445Z" fill="#FF8B7B"/>
<path d="M149.413 27.375C149.218 27.375 149.004 27.3148 148.848 27.1745C146.374 24.7882 143.628 25.4299 143.608 25.4499C143.199 25.5502 142.79 25.2895 142.693 24.8684C142.595 24.4473 142.849 24.0262 143.258 23.9259C143.394 23.8858 146.822 23.0636 149.9 26.0314C150.211 26.3322 150.231 26.8336 149.939 27.1344C149.802 27.2948 149.608 27.375 149.432 27.375H149.413Z" fill="#263238"/>
<path d="M125.457 26.1115C125.262 26.0714 125.106 25.9711 124.989 25.7906C124.755 25.4297 124.833 24.9484 125.184 24.7078C128.651 22.2413 131.923 23.5848 132.06 23.645C132.449 23.8054 132.644 24.2666 132.469 24.6677C132.313 25.0687 131.865 25.2693 131.475 25.0888C131.339 25.0286 128.787 24.026 126.041 25.9912C125.866 26.1115 125.651 26.1516 125.457 26.1115Z" fill="#263238"/>
<path d="M142.869 31.8867L139.771 30.864C139.771 30.864 141.31 33.4107 142.869 31.8867Z" fill="#263238"/>
<path d="M134.203 202.476L156.837 340.178L241.509 314.31C234.594 241.558 217.025 205.504 201.812 192.168L134.203 202.476Z" fill="#263238"/>
<path opacity="0.2" d="M168.504 279.859L185.431 251.204L182.548 231.071L168.504 279.859Z" fill="black"/>
<path d="M192.812 89.0375C194.254 90.361 196.026 91.885 197.662 93.3088C199.338 94.7325 201.071 96.1362 202.805 97.4998C206.291 100.207 209.817 102.894 213.459 105.3C220.725 110.093 228.341 114.264 235.957 116.43C236.424 116.59 236.911 116.67 237.379 116.791L238.08 116.971C238.294 117.031 238.08 116.971 238.002 116.971H237.729C236.931 117.011 236.658 117.332 236.872 117.232C237.34 117.071 238.645 115.808 239.697 114.304C241.898 111.196 243.982 107.225 245.813 103.175C247.722 99.104 249.475 94.8528 251.092 90.5214C252.767 86.2301 254.344 81.7784 255.883 77.4671L255.922 77.3668C256.701 75.1811 259.039 74.0581 261.162 74.8402C263.012 75.542 264.084 77.447 263.811 79.3721C262.486 89.0776 260.441 98.4423 257.461 107.947C255.864 112.68 254.169 117.392 251.325 122.245C249.826 124.651 248.248 127.218 244.878 129.745C243.183 130.948 240.671 132.191 237.554 132.211C237.184 132.211 236.795 132.211 236.424 132.151C236.074 132.111 235.567 132.051 235.489 132.031L234.496 131.85C233.853 131.73 233.172 131.63 232.529 131.489C227.348 130.406 222.517 128.662 217.901 126.596C213.304 124.531 208.96 122.105 204.792 119.498C200.623 116.871 196.591 114.103 192.734 111.076C190.806 109.572 188.917 108.027 187.066 106.423C185.177 104.819 183.443 103.255 181.495 101.35C178.204 98.1214 178.067 92.7673 181.184 89.3784C184.261 86.0497 189.326 85.8491 192.637 88.8771L192.793 89.0175L192.812 89.0375Z" fill="#FF8B7B"/>
<path d="M183.053 82.0994C194.643 81.3975 199.181 87.654 203.992 94.3917C201.616 105.14 188.955 123.528 188.955 123.528C188.955 123.528 162.016 83.3827 183.053 82.0994Z" fill="#FF438B"/>
<path d="M255.357 78.4096L258.279 60.7632L268.836 73.6371C268.836 73.6371 265.135 83.5632 258.493 84.4455L255.338 78.4297L255.357 78.4096Z" fill="#FF8B7B"/>
<path d="M267.94 55.9704L274.29 61.7055C275.459 62.7483 275.654 64.533 274.758 65.8364L267.707 76.1034L258.26 60.7831L264.006 55.9103C265.155 54.9478 266.791 54.9678 267.902 55.9704H267.94Z" fill="#FF8B7B"/>
<path d="M156.564 554.402C158.181 552.998 160.771 551.855 163.07 551.013C163.07 551.013 174.601 544.315 180.62 524.142L193.943 520.713C195.345 520.352 196.748 521.335 196.923 522.819C197.04 523.902 197.118 525.145 197.254 526.147C197.507 528.012 197.293 530.86 197.254 532.705C197.137 539.523 196.397 554.843 196.397 554.843H194.858C194.858 554.843 194.819 545.418 194.04 540.946C193.261 536.455 190.184 541.769 188.469 546.842C186.736 551.915 179.802 557.329 169.731 557.59C157.927 557.891 153.136 557.35 156.564 554.402Z" fill="#263238"/>
<path d="M305.3 507.077C305.475 504.912 306.527 502.205 307.579 499.939C307.579 499.939 311.124 486.804 301.482 468.175L308.534 456.023C309.274 454.74 310.949 454.419 312.079 455.341C312.916 456.023 313.812 456.845 314.611 457.447C316.072 458.59 317.864 460.756 319.11 462.079C323.707 466.972 333.739 478.322 333.739 478.322L332.648 479.445C332.648 479.445 326.142 472.827 322.499 470.22C318.877 467.614 320.357 473.609 322.616 478.462C324.895 483.315 323.727 492.178 316.773 499.718C308.65 508.521 304.891 511.649 305.281 507.057L305.3 507.077Z" fill="#263238"/>
</svg>
